<svg width="1080" height="1920" viewBox="0 0 1080 1920" xmlns="http://www.w3.org/2000/svg">
<defs><linearGradient id="tile" x1="256" y1="0" x2="256" y2="512" gradientUnits="userSpaceOnUse">
<stop offset="0" stop-color="#C56A30"/><stop offset="1" stop-color="#A04A1A"/></linearGradient></defs>
<rect x="0" y="0" width="1080" height="1920" rx="0" fill="#FAF5EF"/>
<text x="60" y="70" font-family="Inter, sans-serif" font-size="30" font-weight="700" fill="#2A211B" text-anchor="start">9:41</text>
<rect x="930" y="52" width="30" height="24" rx="6" fill="#2A211B"/><rect x="970" y="52" width="30" height="24" rx="6" fill="#2A211B"/><rect x="1010" y="52" width="30" height="24" rx="6" fill="#2A211B"/>
<text x="60" y="150" font-family="Inter, sans-serif" font-size="28" font-weight="700" fill="#B45E2A" text-anchor="start">KEYBOARD</text><text x="58" y="210" font-family="Inter, sans-serif" font-size="58" font-weight="800" fill="#2A211B" text-anchor="start">Language keyboard</text><text x="60" y="260" font-family="Inter, sans-serif" font-size="32" font-weight="500" fill="#6F6256" text-anchor="start">Type your language anywhere.</text><rect x="58" y="320" width="964" height="440" rx="22" fill="#FFFFFF" stroke="#E7DCD0" stroke-width="2"/><circle cx="118" cy="400" r="30" fill="#F3E4D6"/><text x="118" y="411" font-family="Inter, sans-serif" font-size="32" font-weight="800" fill="#B45E2A" text-anchor="middle">1</text><text x="176" y="398" font-family="Inter, sans-serif" font-size="32" font-weight="600" fill="#2A211B" text-anchor="start">Turn on MobTranslate Keyboard</text><text x="176" y="440" font-family="Inter, sans-serif" font-size="32" font-weight="600" fill="#2A211B" text-anchor="start">in settings.</text><circle cx="118" cy="540" r="30" fill="#F3E4D6"/><text x="118" y="551" font-family="Inter, sans-serif" font-size="32" font-weight="800" fill="#B45E2A" text-anchor="middle">2</text><text x="176" y="538" font-family="Inter, sans-serif" font-size="32" font-weight="600" fill="#2A211B" text-anchor="start">Switch keyboards to</text><text x="176" y="580" font-family="Inter, sans-serif" font-size="32" font-weight="600" fill="#2A211B" text-anchor="start">MobTranslate.</text><circle cx="118" cy="680" r="30" fill="#F3E4D6"/><text x="118" y="691" font-family="Inter, sans-serif" font-size="32" font-weight="800" fill="#B45E2A" text-anchor="middle">3</text><text x="176" y="678" font-family="Inter, sans-serif" font-size="32" font-weight="600" fill="#2A211B" text-anchor="start">Type English, tap the</text><text x="176" y="720" font-family="Inter, sans-serif" font-size="32" font-weight="600" fill="#2A211B" text-anchor="start">language word.</text><rect x="58" y="800" width="964" height="108" rx="16" fill="#B45E2A"/><text x="540.0" y="868" font-family="Inter, sans-serif" font-size="34" font-weight="700" fill="#FFFFFF" text-anchor="middle">Open keyboard settings</text><rect x="40" y="1000" width="1000" height="360" rx="20" fill="#E7E0D8"/><rect x="70" y="1020" width="200" height="54" rx="27" fill="#B45E2A"/><text x="170" y="1056" font-family="Inter, sans-serif" font-size="24" font-weight="700" fill="#FFFFFF" text-anchor="middle">Kuku Yalanji ▾</text><rect x="290" y="1020" width="130" height="54" rx="27" fill="#E08A3C"/><text x="355" y="1056" font-family="Inter, sans-serif" font-size="26" font-weight="800" fill="#FFFFFF" text-anchor="middle">bana</text><rect x="60" y="1095" width="86" height="66" rx="10" fill="#FFFFFF"/><text x="103" y="1138" font-family="Inter, sans-serif" font-size="30" font-weight="600" fill="#2A211B" text-anchor="middle">q</text><rect x="156" y="1095" width="86" height="66" rx="10" fill="#FFFFFF"/><text x="199" y="1138" font-family="Inter, sans-serif" font-size="30" font-weight="600" fill="#2A211B" text-anchor="middle">w</text><rect x="252" y="1095" width="86" height="66" rx="10" fill="#FFFFFF"/><text x="295" y="1138" font-family="Inter, sans-serif" font-size="30" font-weight="600" fill="#2A211B" text-anchor="middle">e</text><rect x="348" y="1095" width="86" height="66" rx="10" fill="#FFFFFF"/><text x="391" y="1138" font-family="Inter, sans-serif" font-size="30" font-weight="600" fill="#2A211B" text-anchor="middle">r</text><rect x="444" y="1095" width="86" height="66" rx="10" fill="#FFFFFF"/><text x="487" y="1138" font-family="Inter, sans-serif" font-size="30" font-weight="600" fill="#2A211B" text-anchor="middle">t</text><rect x="540" y="1095" width="86" height="66" rx="10" fill="#FFFFFF"/><text x="583" y="1138" font-family="Inter, sans-serif" font-size="30" font-weight="600" fill="#2A211B" text-anchor="middle">y</text><rect x="636" y="1095" width="86" height="66" rx="10" fill="#FFFFFF"/><text x="679" y="1138" font-family="Inter, sans-serif" font-size="30" font-weight="600" fill="#2A211B" text-anchor="middle">u</text><rect x="732" y="1095" width="86" height="66" rx="10" fill="#FFFFFF"/><text x="775" y="1138" font-family="Inter, sans-serif" font-size="30" font-weight="600" fill="#2A211B" text-anchor="middle">i</text><rect x="828" y="1095" width="86" height="66" rx="10" fill="#FFFFFF"/><text x="871" y="1138" font-family="Inter, sans-serif" font-size="30" font-weight="600" fill="#2A211B" text-anchor="middle">o</text><rect x="924" y="1095" width="86" height="66" rx="10" fill="#FFFFFF"/><text x="967" y="1138" font-family="Inter, sans-serif" font-size="30" font-weight="600" fill="#2A211B" text-anchor="middle">p</text><rect x="60" y="1173" width="86" height="66" rx="10" fill="#FFFFFF"/><text x="103" y="1216" font-family="Inter, sans-serif" font-size="30" font-weight="600" fill="#2A211B" text-anchor="middle">a</text><rect x="156" y="1173" width="86" height="66" rx="10" fill="#FFFFFF"/><text x="199" y="1216" font-family="Inter, sans-serif" font-size="30" font-weight="600" fill="#2A211B" text-anchor="middle">s</text><rect x="252" y="1173" width="86" height="66" rx="10" fill="#FFFFFF"/><text x="295" y="1216" font-family="Inter, sans-serif" font-size="30" font-weight="600" fill="#2A211B" text-anchor="middle">d</text><rect x="348" y="1173" width="86" height="66" rx="10" fill="#FFFFFF"/><text x="391" y="1216" font-family="Inter, sans-serif" font-size="30" font-weight="600" fill="#2A211B" text-anchor="middle">f</text><rect x="444" y="1173" width="86" height="66" rx="10" fill="#FFFFFF"/><text x="487" y="1216" font-family="Inter, sans-serif" font-size="30" font-weight="600" fill="#2A211B" text-anchor="middle">g</text><rect x="540" y="1173" width="86" height="66" rx="10" fill="#FFFFFF"/><text x="583" y="1216" font-family="Inter, sans-serif" font-size="30" font-weight="600" fill="#2A211B" text-anchor="middle">h</text><rect x="636" y="1173" width="86" height="66" rx="10" fill="#FFFFFF"/><text x="679" y="1216" font-family="Inter, sans-serif" font-size="30" font-weight="600" fill="#2A211B" text-anchor="middle">j</text><rect x="732" y="1173" width="86" height="66" rx="10" fill="#FFFFFF"/><text x="775" y="1216" font-family="Inter, sans-serif" font-size="30" font-weight="600" fill="#2A211B" text-anchor="middle">k</text><rect x="828" y="1173" width="86" height="66" rx="10" fill="#FFFFFF"/><text x="871" y="1216" font-family="Inter, sans-serif" font-size="30" font-weight="600" fill="#2A211B" text-anchor="middle">l</text><rect x="60" y="1251" width="86" height="66" rx="10" fill="#FFFFFF"/><text x="103" y="1294" font-family="Inter, sans-serif" font-size="30" font-weight="600" fill="#2A211B" text-anchor="middle">z</text><rect x="156" y="1251" width="86" height="66" rx="10" fill="#FFFFFF"/><text x="199" y="1294" font-family="Inter, sans-serif" font-size="30" font-weight="600" fill="#2A211B" text-anchor="middle">x</text><rect x="252" y="1251" width="86" height="66" rx="10" fill="#FFFFFF"/><text x="295" y="1294" font-family="Inter, sans-serif" font-size="30" font-weight="600" fill="#2A211B" text-anchor="middle">c</text><rect x="348" y="1251" width="86" height="66" rx="10" fill="#FFFFFF"/><text x="391" y="1294" font-family="Inter, sans-serif" font-size="30" font-weight="600" fill="#2A211B" text-anchor="middle">v</text><rect x="444" y="1251" width="86" height="66" rx="10" fill="#FFFFFF"/><text x="487" y="1294" font-family="Inter, sans-serif" font-size="30" font-weight="600" fill="#2A211B" text-anchor="middle">b</text><rect x="540" y="1251" width="86" height="66" rx="10" fill="#FFFFFF"/><text x="583" y="1294" font-family="Inter, sans-serif" font-size="30" font-weight="600" fill="#2A211B" text-anchor="middle">n</text><rect x="636" y="1251" width="86" height="66" rx="10" fill="#FFFFFF"/><text x="679" y="1294" font-family="Inter, sans-serif" font-size="30" font-weight="600" fill="#2A211B" text-anchor="middle">m</text>
<rect x="0" y="1770" width="1080" height="150" rx="0" fill="#FFFFFF"/><line x1="0" y1="1770" x2="1080" y2="1770" stroke="#E7DCD0" stroke-width="2"/><rect x="88" y="1806" width="30" height="22" rx="7" fill="#6F6256"/><rect x="106" y="1816" width="24" height="18" rx="6" fill="#6F6256"/><text x="108" y="1874" font-family="Inter, sans-serif" font-size="24" font-weight="600" fill="#6F6256" text-anchor="middle">Translate</text><rect x="306" y="1804" width="36" height="36" rx="5" fill="#6F6256"/><rect x="322" y="1804" width="4" height="36" fill="#FAF5EF"/><text x="324" y="1874" font-family="Inter, sans-serif" font-size="24" font-weight="600" fill="#6F6256" text-anchor="middle">Words</text><rect x="531" y="1802" width="18" height="28" rx="9" fill="#6F6256"/><path d="M524 1822 a16 16 0 0 0 32 0" stroke="#6F6256" stroke-width="5" fill="none"/><rect x="538" y="1836" width="4" height="10" fill="#6F6256"/><text x="540" y="1874" font-family="Inter, sans-serif" font-size="24" font-weight="600" fill="#6F6256" text-anchor="middle">Record</text><rect x="734" y="1808" width="44" height="28" rx="5" fill="#B45E2A"/><text x="756" y="1874" font-family="Inter, sans-serif" font-size="24" font-weight="600" fill="#B45E2A" text-anchor="middle">Keyboard</text><circle cx="972" cy="1812" r="10" fill="#6F6256"/><path d="M954 1840 a18 16 0 0 1 36 0 z" fill="#6F6256"/><text x="972" y="1874" font-family="Inter, sans-serif" font-size="24" font-weight="600" fill="#6F6256" text-anchor="middle">Account</text>
</svg>