<svg width="1080" height="1920" viewBox="0 0 1080 1920" xmlns="http://www.w3.org/2000/svg">
<defs><linearGradient id="tile" x1="256" y1="0" x2="256" y2="512" gradientUnits="userSpaceOnUse">
<stop offset="0" stop-color="#C56A30"/><stop offset="1" stop-color="#A04A1A"/></linearGradient></defs>
<rect x="0" y="0" width="1080" height="1920" rx="0" fill="#FAF5EF"/>
<text x="60" y="70" font-family="Inter, sans-serif" font-size="30" font-weight="700" fill="#2A211B" text-anchor="start">9:41</text>
<rect x="930" y="52" width="30" height="24" rx="6" fill="#2A211B"/><rect x="970" y="52" width="30" height="24" rx="6" fill="#2A211B"/><rect x="1010" y="52" width="30" height="24" rx="6" fill="#2A211B"/>
<text x="60" y="150" font-family="Inter, sans-serif" font-size="28" font-weight="700" fill="#B45E2A" text-anchor="start">TRANSLATE</text><text x="58" y="210" font-family="Inter, sans-serif" font-size="58" font-weight="800" fill="#2A211B" text-anchor="start">Translate</text><text x="60" y="260" font-family="Inter, sans-serif" font-size="32" font-weight="500" fill="#6F6256" text-anchor="start">Type English, get Kuku Yalanji.</text><rect x="58" y="310" width="268" height="72" rx="36" fill="#B45E2A"/><text x="192.0" y="357" font-family="Inter, sans-serif" font-size="30" font-weight="700" fill="#FFFFFF" text-anchor="middle">Kuku Yalanji</text><rect x="344" y="310" width="268" height="72" rx="36" fill="#FFFFFF" stroke="#E7DCD0" stroke-width="2"/><text x="478.0" y="357" font-family="Inter, sans-serif" font-size="30" font-weight="700" fill="#2A211B" text-anchor="middle">Anindilyakwa</text><rect x="630" y="310" width="173" height="72" rx="36" fill="#FFFFFF" stroke="#E7DCD0" stroke-width="2"/><text x="716.5" y="357" font-family="Inter, sans-serif" font-size="30" font-weight="700" fill="#2A211B" text-anchor="middle">Wajarri</text><rect x="58" y="410" width="964" height="150" rx="18" fill="#FFFFFF" stroke="#E7DCD0" stroke-width="2"/><text x="86" y="500" font-family="Inter, sans-serif" font-size="40" font-weight="500" fill="#2A211B" text-anchor="start">Hello</text><rect x="58" y="590" width="964" height="108" rx="16" fill="#B45E2A"/><text x="540.0" y="658" font-family="Inter, sans-serif" font-size="36" font-weight="700" fill="#FFFFFF" text-anchor="middle">Translate  →</text><rect x="58" y="740" width="964" height="330" rx="22" fill="#FFFFFF" stroke="#E7DCD0" stroke-width="2"/><text x="90" y="810" font-family="Inter, sans-serif" font-size="26" font-weight="700" fill="#B45E2A" text-anchor="start">KUKU YALANJI</text><text x="90" y="895" font-family="Inter, sans-serif" font-size="70" font-weight="800" fill="#2A211B" text-anchor="start">Kawku</text><circle cx="930" cy="870" r="52" fill="#F3E4D6"/><path d="M914 862 h10 l14 -12 v40 l-14 -12 h-10 z" fill="#B45E2A"/><path d="M944 858 a18 18 0 0 1 0 24" stroke="#B45E2A" stroke-width="5" fill="none"/><text x="90" y="975" font-family="Inter, sans-serif" font-size="34" font-weight="500" fill="#6F6256" text-anchor="start">A greeting — hello.</text>
<rect x="0" y="1770" width="1080" height="150" rx="0" fill="#FFFFFF"/><line x1="0" y1="1770" x2="1080" y2="1770" stroke="#E7DCD0" stroke-width="2"/><rect x="88" y="1806" width="30" height="22" rx="7" fill="#B45E2A"/><rect x="106" y="1816" width="24" height="18" rx="6" fill="#B45E2A"/><text x="108" y="1874" font-family="Inter, sans-serif" font-size="24" font-weight="600" fill="#B45E2A" text-anchor="middle">Translate</text><rect x="306" y="1804" width="36" height="36" rx="5" fill="#6F6256"/><rect x="322" y="1804" width="4" height="36" fill="#FAF5EF"/><text x="324" y="1874" font-family="Inter, sans-serif" font-size="24" font-weight="600" fill="#6F6256" text-anchor="middle">Words</text><rect x="531" y="1802" width="18" height="28" rx="9" fill="#6F6256"/><path d="M524 1822 a16 16 0 0 0 32 0" stroke="#6F6256" stroke-width="5" fill="none"/><rect x="538" y="1836" width="4" height="10" fill="#6F6256"/><text x="540" y="1874" font-family="Inter, sans-serif" font-size="24" font-weight="600" fill="#6F6256" text-anchor="middle">Record</text><rect x="734" y="1808" width="44" height="28" rx="5" fill="#6F6256"/><text x="756" y="1874" font-family="Inter, sans-serif" font-size="24" font-weight="600" fill="#6F6256" text-anchor="middle">Keyboard</text><circle cx="972" cy="1812" r="10" fill="#6F6256"/><path d="M954 1840 a18 16 0 0 1 36 0 z" fill="#6F6256"/><text x="972" y="1874" font-family="Inter, sans-serif" font-size="24" font-weight="600" fill="#6F6256" text-anchor="middle">Account</text>
</svg>