<svg width="1080" height="1920" viewBox="0 0 1080 1920" xmlns="http://www.w3.org/2000/svg">
<defs><linearGradient id="tile" x1="256" y1="0" x2="256" y2="512" gradientUnits="userSpaceOnUse">
<stop offset="0" stop-color="#C56A30"/><stop offset="1" stop-color="#A04A1A"/></linearGradient></defs>
<rect x="0" y="0" width="1080" height="1920" rx="0" fill="#FAF5EF"/>
<text x="60" y="70" font-family="Inter, sans-serif" font-size="30" font-weight="700" fill="#2A211B" text-anchor="start">9:41</text>
<rect x="930" y="52" width="30" height="24" rx="6" fill="#2A211B"/><rect x="970" y="52" width="30" height="24" rx="6" fill="#2A211B"/><rect x="1010" y="52" width="30" height="24" rx="6" fill="#2A211B"/>
<text x="60" y="150" font-family="Inter, sans-serif" font-size="28" font-weight="700" fill="#B45E2A" text-anchor="start">WORDS</text><text x="58" y="210" font-family="Inter, sans-serif" font-size="58" font-weight="800" fill="#2A211B" text-anchor="start">Words</text><text x="60" y="260" font-family="Inter, sans-serif" font-size="32" font-weight="500" fill="#6F6256" text-anchor="start">Search the dictionary.</text><rect x="58" y="300" width="964" height="96" rx="16" fill="#FFFFFF" stroke="#E7DCD0" stroke-width="2"/><text x="96" y="360" font-family="Inter, sans-serif" font-size="36" font-weight="500" fill="#2A211B" text-anchor="start">water</text><rect x="58" y="440" width="964" height="150" rx="16" fill="#FFFFFF" stroke="#E7DCD0" stroke-width="2"/><text x="90" y="502" font-family="Inter, sans-serif" font-size="42" font-weight="700" fill="#2A211B" text-anchor="start">bana</text><text x="90" y="548" font-family="Inter, sans-serif" font-size="32" font-weight="500" fill="#6F6256" text-anchor="start">water, fresh water</text><circle cx="930" cy="515" r="48" fill="#F3E4D6"/><path d="M914 507 h10 l14 -12 v40 l-14 -12 h-10 z" fill="#B45E2A"/><path d="M944 503 a18 18 0 0 1 0 24" stroke="#B45E2A" stroke-width="5" fill="none"/><rect x="58" y="610" width="964" height="150" rx="16" fill="#FFFFFF" stroke="#E7DCD0" stroke-width="2"/><text x="90" y="672" font-family="Inter, sans-serif" font-size="42" font-weight="700" fill="#2A211B" text-anchor="start">bana-bana</text><text x="90" y="718" font-family="Inter, sans-serif" font-size="32" font-weight="500" fill="#6F6256" text-anchor="start">wet, watery</text><circle cx="930" cy="685" r="48" fill="#F3E4D6"/><path d="M914 677 h10 l14 -12 v40 l-14 -12 h-10 z" fill="#B45E2A"/><path d="M944 673 a18 18 0 0 1 0 24" stroke="#B45E2A" stroke-width="5" fill="none"/><rect x="58" y="780" width="964" height="150" rx="16" fill="#FFFFFF" stroke="#E7DCD0" stroke-width="2"/><text x="90" y="842" font-family="Inter, sans-serif" font-size="42" font-weight="700" fill="#2A211B" text-anchor="start">yaba</text><text x="90" y="888" font-family="Inter, sans-serif" font-size="32" font-weight="500" fill="#6F6256" text-anchor="start">river, creek</text><circle cx="930" cy="855" r="48" fill="#F3E4D6"/><path d="M914 847 h10 l14 -12 v40 l-14 -12 h-10 z" fill="#B45E2A"/><path d="M944 843 a18 18 0 0 1 0 24" stroke="#B45E2A" stroke-width="5" fill="none"/>
<rect x="0" y="1770" width="1080" height="150" rx="0" fill="#FFFFFF"/><line x1="0" y1="1770" x2="1080" y2="1770" stroke="#E7DCD0" stroke-width="2"/><rect x="88" y="1806" width="30" height="22" rx="7" fill="#6F6256"/><rect x="106" y="1816" width="24" height="18" rx="6" fill="#6F6256"/><text x="108" y="1874" font-family="Inter, sans-serif" font-size="24" font-weight="600" fill="#6F6256" text-anchor="middle">Translate</text><rect x="306" y="1804" width="36" height="36" rx="5" fill="#B45E2A"/><rect x="322" y="1804" width="4" height="36" fill="#FAF5EF"/><text x="324" y="1874" font-family="Inter, sans-serif" font-size="24" font-weight="600" fill="#B45E2A" text-anchor="middle">Words</text><rect x="531" y="1802" width="18" height="28" rx="9" fill="#6F6256"/><path d="M524 1822 a16 16 0 0 0 32 0" stroke="#6F6256" stroke-width="5" fill="none"/><rect x="538" y="1836" width="4" height="10" fill="#6F6256"/><text x="540" y="1874" font-family="Inter, sans-serif" font-size="24" font-weight="600" fill="#6F6256" text-anchor="middle">Record</text><rect x="734" y="1808" width="44" height="28" rx="5" fill="#6F6256"/><text x="756" y="1874" font-family="Inter, sans-serif" font-size="24" font-weight="600" fill="#6F6256" text-anchor="middle">Keyboard</text><circle cx="972" cy="1812" r="10" fill="#6F6256"/><path d="M954 1840 a18 16 0 0 1 36 0 z" fill="#6F6256"/><text x="972" y="1874" font-family="Inter, sans-serif" font-size="24" font-weight="600" fill="#6F6256" text-anchor="middle">Account</text>
</svg>