<svg xmlns="http://www.w3.org/2000/svg" width="1024" height="1024" viewBox="0 0 1024 1024">
  <rect width="1024" height="1024" fill="#FFFFFF"/>
  <path fill="#8B3A2E" d="M 265.69,290.11 C 261.48,291.38 256.34,294.18 254.19,296.38 C 251.11,299.49 247.46,305.40 247.01,308.06 C 246.93,308.59 246.59,309.92 246.30,311.02 C 245.77,312.94 245.77,317.24 245.77,480.86 C 245.77,668.55 245.54,647.81 247.52,656.76 C 248.31,660.44 249.27,663.52 250.43,666.15 C 250.97,667.39 251.42,668.52 251.42,668.69 C 251.42,670.36 256.45,678.24 260.83,683.50 C 264.70,688.13 278.75,696.84 287.03,699.72 C 288.04,700.06 289.31,700.59 289.88,700.88 C 291.09,701.47 302.74,705.37 303.33,705.37 C 303.56,705.37 305.42,705.88 307.48,706.47 C 313.22,708.20 318.87,709.81 321.44,710.43 C 330.77,712.77 332.83,713.28 334.92,713.82 C 337.38,714.44 341.37,715.34 345.10,716.08 C 346.65,716.39 349.22,716.90 350.83,717.21 C 352.42,717.55 355.02,718.06 356.63,718.40 C 358.21,718.71 360.78,719.22 362.33,719.53 C 363.89,719.84 366.32,720.35 367.70,720.66 C 369.12,720.94 370.70,721.19 371.24,721.19 C 371.77,721.19 373.44,721.45 374.91,721.76 C 376.38,722.10 378.75,722.61 380.14,722.92 C 381.55,723.23 383.19,723.45 383.81,723.45 C 384.43,723.45 385.90,723.71 387.06,724.02 C 388.22,724.33 389.74,724.59 390.45,724.59 C 391.16,724.59 392.68,724.84 393.84,725.15 C 395.00,725.46 396.78,725.72 397.80,725.72 C 398.82,725.72 400.60,725.97 401.75,726.28 C 402.91,726.59 404.69,726.85 405.71,726.85 C 406.73,726.85 408.51,727.10 409.67,727.41 C 410.83,727.72 412.61,727.98 413.62,727.98 C 414.64,727.98 416.42,728.23 417.58,728.54 C 418.74,728.85 420.52,729.11 421.54,729.11 C 422.55,729.11 424.33,729.36 425.49,729.67 C 426.76,730.01 428.57,730.24 430.01,730.24 C 431.45,730.24 433.26,730.46 434.53,730.80 C 435.98,731.17 437.61,731.37 439.62,731.37 C 441.63,731.37 443.27,731.56 444.71,731.93 C 446.15,732.30 447.79,732.50 449.79,732.50 C 451.80,732.50 453.44,732.70 454.88,733.06 C 456.41,733.46 457.93,733.63 460.39,733.63 C 462.88,733.63 464.46,733.77 466.35,734.22 C 470.17,735.15 472.17,734.50 473.47,731.93 C 474.41,730.10 474.46,688.56 473.53,685.02 C 473.22,683.86 472.97,682.34 472.97,681.66 C 472.97,678.52 469.72,668.35 467.00,662.93 C 462.99,654.93 456.55,646.65 451.83,643.43 C 451.09,642.95 449.82,641.99 448.97,641.28 C 448.13,640.60 446.77,639.72 446.01,639.33 C 445.22,638.93 443.86,638.11 443.01,637.55 C 442.14,636.96 438.35,634.92 434.53,633.03 C 430.72,631.13 426.90,629.10 426.06,628.51 C 425.21,627.91 421.39,625.88 417.58,623.98 C 413.76,622.09 409.98,620.06 409.10,619.46 C 408.25,618.87 405.46,617.34 402.88,616.07 C 400.31,614.80 397.52,613.27 396.67,612.68 C 395.82,612.12 394.04,611.10 392.71,610.42 C 387.00,607.54 380.84,602.17 377.40,597.05 C 374.12,592.19 371.24,585.24 371.24,582.19 C 371.24,581.48 370.98,579.93 370.67,578.77 C 370.13,576.71 370.11,575.44 370.11,522.25 C 370.11,469.07 370.13,467.80 370.67,465.74 C 370.98,464.58 371.24,463.28 371.24,462.88 C 371.24,461.87 372.54,457.68 373.35,455.96 C 374.63,453.39 379.85,448.44 382.93,446.95 C 388.16,444.35 392.01,443.72 395.96,444.80 C 397.06,445.08 398.42,445.42 398.99,445.50 C 400.29,445.73 408.00,449.52 410.18,451.01 C 411.05,451.61 412.35,452.37 413.06,452.74 C 413.76,453.11 415.04,453.87 415.88,454.43 C 416.73,455.03 418.51,456.04 419.84,456.69 C 421.17,457.34 422.95,458.36 423.80,458.96 C 424.64,459.55 426.42,460.57 427.75,461.22 C 429.08,461.87 430.86,462.88 431.71,463.48 C 432.56,464.04 433.83,464.80 434.53,465.17 C 435.24,465.54 436.51,466.30 437.36,466.87 C 438.21,467.46 440.47,468.70 442.36,469.64 C 444.26,470.60 446.74,471.98 447.93,472.72 C 449.09,473.45 450.78,474.50 451.69,475.03 C 452.59,475.57 454.00,476.39 454.82,476.87 C 455.64,477.35 457.28,478.34 458.44,479.10 C 459.60,479.84 461.58,480.94 462.79,481.56 C 464.01,482.18 465.99,483.29 467.14,484.02 C 468.30,484.78 469.94,485.77 470.76,486.25 C 471.58,486.73 472.99,487.55 473.90,488.09 C 474.80,488.63 476.50,489.64 477.66,490.41 C 478.82,491.14 480.82,492.27 482.09,492.92 C 483.37,493.54 484.98,494.45 485.68,494.93 C 486.98,495.83 489.84,497.47 492.44,498.86 C 495.23,500.30 498.54,499.76 499.61,497.67 C 500.07,496.74 500.09,494.62 500.04,462.49 C 499.95,428.30 499.95,428.30 498.79,425.89 C 498.17,424.56 497.27,423.07 496.84,422.56 C 496.02,421.57 488.79,416.60 486.53,415.44 C 485.82,415.07 483.79,413.80 482.01,412.61 C 480.23,411.42 478.19,410.15 477.52,409.79 C 476.81,409.45 473.25,407.16 469.57,404.70 C 465.90,402.24 462.34,399.95 461.63,399.61 C 460.96,399.25 458.92,397.97 457.14,396.79 C 455.36,395.60 453.33,394.33 452.62,393.96 C 451.91,393.59 449.88,392.32 448.10,391.14 C 446.32,389.95 444.28,388.68 443.61,388.31 C 442.90,387.97 439.34,385.68 435.66,383.22 C 431.99,380.76 428.43,378.48 427.72,378.14 C 427.05,377.77 425.01,376.50 423.23,375.31 C 421.45,374.12 419.42,372.85 418.71,372.48 C 418.00,372.12 415.97,370.85 414.19,369.66 C 412.41,368.47 410.37,367.20 409.67,366.83 C 408.99,366.49 406.19,364.71 403.45,362.88 C 400.71,361.04 397.91,359.26 397.23,358.92 C 396.53,358.55 394.49,357.28 392.71,356.09 C 390.93,354.91 388.90,353.64 388.19,353.27 C 387.51,352.93 384.71,351.15 381.97,349.31 C 379.23,347.48 376.43,345.70 375.76,345.36 C 375.05,344.99 373.02,343.72 371.24,342.53 C 369.46,341.34 367.42,340.07 366.71,339.70 C 366.01,339.34 363.97,338.07 362.19,336.88 C 360.41,335.69 358.41,334.42 357.73,334.08 C 357.05,333.74 354.82,332.36 352.73,331.00 C 350.66,329.64 348.23,328.12 347.39,327.61 C 343.43,325.32 342.52,324.78 340.55,323.54 C 339.42,322.81 337.92,321.93 337.27,321.59 C 336.59,321.25 334.58,319.98 332.80,318.79 C 331.02,317.61 329.02,316.33 328.34,316.00 C 327.69,315.66 326.19,314.78 325.06,314.05 C 323.90,313.31 322.26,312.32 321.44,311.84 C 320.62,311.36 319.21,310.54 318.31,310.01 C 317.40,309.47 315.71,308.45 314.55,307.69 C 313.39,306.95 311.38,305.82 310.11,305.17 C 308.84,304.55 307.09,303.56 306.24,302.97 C 305.39,302.40 304.12,301.64 303.42,301.27 C 302.71,300.91 301.44,300.14 300.59,299.58 C 295.53,296.16 285.36,291.89 277.67,290.00 C 274.11,289.12 268.83,289.18 265.69,290.11"/>
  <path fill="#1D252E" d="M 748.63,290.00 C 747.55,290.28 746.31,290.53 745.91,290.53 C 744.90,290.53 741.03,291.72 738.71,292.74 C 737.63,293.22 736.11,293.81 735.35,294.10 C 733.37,294.75 724.07,299.44 722.21,300.71 C 721.36,301.27 719.61,302.29 718.33,302.91 C 717.06,303.56 715.08,304.69 713.93,305.43 C 712.77,306.19 711.18,307.12 710.45,307.55 C 709.12,308.31 708.39,308.73 702.99,312.01 C 701.66,312.80 699.85,313.90 698.98,314.44 C 698.07,314.98 696.60,315.83 695.73,316.36 C 694.82,316.90 693.01,318.00 691.69,318.79 C 686.29,322.07 685.55,322.50 684.23,323.26 C 683.49,323.68 681.94,324.61 680.78,325.35 C 679.62,326.08 678.15,326.96 677.50,327.30 C 676.82,327.64 674.82,328.91 673.04,330.10 C 671.26,331.28 669.25,332.56 668.57,332.89 C 667.89,333.23 665.66,334.62 663.57,335.97 C 661.51,337.33 659.08,338.86 658.23,339.34 C 654.27,341.65 653.37,342.19 651.39,343.43 C 650.26,344.17 648.76,345.05 648.11,345.38 C 647.46,345.72 644.69,347.48 641.95,349.31 C 639.21,351.15 636.41,352.93 635.73,353.27 C 635.03,353.64 632.99,354.91 631.21,356.09 C 629.43,357.28 627.40,358.55 626.69,358.92 C 625.99,359.29 623.95,360.56 622.17,361.75 C 620.39,362.93 618.36,364.20 617.65,364.57 C 616.97,364.91 614.17,366.69 611.43,368.53 C 608.69,370.37 605.89,372.15 605.22,372.48 C 604.51,372.85 602.47,374.12 600.69,375.31 C 598.91,376.50 596.88,377.77 596.17,378.14 C 595.49,378.48 592.70,380.26 589.96,382.09 C 587.21,383.93 584.42,385.71 583.74,386.05 C 583.06,386.39 580.26,388.17 577.52,390.00 C 574.78,391.84 571.98,393.62 571.31,393.96 C 570.63,394.30 567.83,396.08 565.09,397.92 C 562.35,399.75 559.55,401.53 558.87,401.87 C 558.19,402.21 555.40,403.99 552.65,405.83 C 549.91,407.67 547.12,409.45 546.44,409.79 C 545.73,410.15 543.70,411.42 541.92,412.61 C 540.14,413.80 538.10,415.07 537.40,415.44 C 532.08,418.15 525.72,423.29 524.65,425.78 C 522.59,430.39 522.70,428.41 522.70,462.91 C 522.70,497.25 522.64,495.89 524.40,498.01 C 526.35,500.35 528.92,499.87 534.97,496.06 C 536.12,495.30 537.82,494.28 538.72,493.74 C 539.63,493.20 541.04,492.39 541.86,491.90 C 542.68,491.42 544.32,490.44 545.48,489.67 C 546.64,488.94 548.64,487.81 549.91,487.16 C 551.19,486.54 552.94,485.55 553.79,484.95 C 554.63,484.39 555.90,483.63 556.61,483.26 C 557.32,482.89 558.59,482.13 559.44,481.56 C 560.28,480.97 562.06,479.95 563.39,479.30 C 564.72,478.65 566.50,477.63 567.35,477.04 C 568.20,476.48 569.47,475.71 570.18,475.35 C 570.88,474.98 572.15,474.22 573.00,473.65 C 573.85,473.06 575.63,472.04 576.96,471.39 C 578.29,470.74 580.07,469.72 580.91,469.13 C 581.76,468.54 583.54,467.52 584.87,466.87 C 586.20,466.22 587.98,465.20 588.83,464.61 C 589.67,464.04 590.95,463.28 591.65,462.91 C 592.36,462.54 593.63,461.78 594.48,461.22 C 595.33,460.62 597.61,459.35 599.56,458.39 C 601.51,457.43 603.80,456.16 604.65,455.56 C 605.50,454.97 607.28,453.95 608.61,453.30 C 609.93,452.65 611.74,451.61 612.62,451.01 C 615.08,449.35 622.57,445.76 625.25,444.97 C 628.64,443.95 633.76,443.95 637.09,444.94 C 641.02,446.13 641.58,446.47 646.56,450.51 C 649.21,452.65 652.04,458.36 652.69,462.91 C 652.86,463.93 653.17,465.45 653.40,466.30 C 654.13,469.07 654.02,575.89 653.25,578.77 C 652.94,579.93 652.69,581.48 652.69,582.19 C 652.69,584.34 651.42,587.98 648.90,593.07 C 646.50,597.90 646.50,597.90 641.73,602.68 C 638.08,606.35 636.53,607.71 635.14,608.41 C 634.15,608.95 632.63,609.86 631.78,610.42 C 630.93,611.01 628.13,612.54 625.56,613.81 C 622.99,615.08 620.19,616.61 619.34,617.20 C 618.50,617.80 615.70,619.32 613.13,620.59 C 610.56,621.87 607.76,623.39 606.91,623.98 C 606.06,624.58 602.76,626.36 599.56,627.94 C 596.37,629.52 593.06,631.30 592.22,631.90 C 591.37,632.49 588.06,634.27 584.87,635.85 C 579.25,638.65 576.17,640.52 573.57,642.64 C 572.86,643.20 571.73,644.05 571.02,644.53 C 569.38,645.63 565.85,649.16 564.72,650.83 C 564.24,651.54 563.39,652.67 562.83,653.37 C 558.76,658.35 552.80,670.33 552.20,674.71 C 552.06,675.78 551.58,678.21 550.37,683.75 C 549.72,686.89 549.46,730.72 550.11,731.93 C 551.04,733.68 558.53,734.33 563.39,733.06 C 564.95,732.67 566.47,732.50 569.04,732.50 C 571.62,732.50 573.14,732.33 574.70,731.93 C 575.97,731.59 577.78,731.37 579.22,731.37 C 580.66,731.37 582.47,731.14 583.74,730.80 C 585.18,730.43 586.82,730.24 588.83,730.24 C 590.83,730.24 592.47,730.04 593.91,729.67 C 595.18,729.33 596.99,729.11 598.43,729.11 C 599.87,729.11 601.68,728.88 602.95,728.54 C 604.23,728.20 606.04,727.98 607.48,727.98 C 608.92,727.98 610.73,727.75 612.00,727.41 C 613.16,727.10 614.68,726.85 615.39,726.85 C 616.10,726.85 617.62,726.59 618.78,726.28 C 619.94,725.97 621.72,725.72 622.74,725.72 C 623.75,725.72 625.53,725.46 626.69,725.15 C 627.85,724.84 629.63,724.59 630.65,724.59 C 631.67,724.59 633.45,724.33 634.60,724.02 C 635.76,723.71 637.23,723.45 637.85,723.45 C 638.48,723.45 640.14,723.23 641.53,722.92 C 642.94,722.61 645.29,722.10 646.76,721.76 C 648.22,721.45 649.89,721.19 650.43,721.19 C 650.97,721.19 652.63,720.94 654.10,720.63 C 655.57,720.29 657.95,719.78 659.33,719.47 C 660.74,719.16 662.38,718.93 662.98,718.93 C 663.60,718.93 665.10,718.68 666.31,718.37 C 667.53,718.06 669.50,717.55 670.72,717.24 C 671.93,716.93 673.49,716.67 674.17,716.67 C 675.30,716.67 676.40,716.45 681.94,715.01 C 683.04,714.72 685.13,714.21 686.60,713.90 C 688.07,713.59 690.56,713.03 692.11,712.69 C 693.66,712.35 696.60,711.59 698.61,710.99 C 700.64,710.40 703.36,709.66 704.69,709.33 C 706.01,708.99 708.75,708.22 710.79,707.60 C 712.85,707.01 714.72,706.50 714.94,706.50 C 715.20,706.50 720.34,704.83 726.42,702.83 C 737.27,699.21 737.61,699.10 745.04,695.37 C 749.50,693.13 753.23,691.07 754.14,690.34 C 754.99,689.66 756.29,688.70 756.99,688.19 C 761.54,685.11 767.45,677.25 771.38,669.09 C 773.47,664.76 774.00,663.21 775.30,658.04 C 775.61,656.79 776.12,654.76 776.43,653.49 C 776.86,651.93 777.03,650.29 777.03,648.26 C 777.03,646.25 777.22,644.64 777.59,643.20 C 778.36,640.29 778.50,318.77 777.73,315.97 C 777.51,315.12 777.17,313.57 777.03,312.55 C 775.73,303.73 770.61,296.41 763.12,292.65 C 760.92,291.55 759.03,290.79 758.18,290.68 C 757.44,290.59 755.78,290.25 754.51,289.97 C 751.71,289.29 751.20,289.29 748.63,290.00"/>
</svg>
