<svg xmlns="http://www.w3.org/2000/svg" width="471.1" height="393.9" viewBox="0 0 471.08 393.91" role="img" aria-label="Mob Translate">
  <path fill="#8B3A2E" d="M 17.63,0.65 C 13.91,1.78 9.36,4.25 7.46,6.20 C 4.73,8.95 1.51,14.18 1.11,16.53 C 1.03,17.00 0.73,18.18 0.48,19.15 C 0.01,20.85 0.01,24.65 0.01,169.40 C 0.01,335.45 -0.19,317.10 1.56,325.03 C 2.26,328.28 3.11,331.00 4.13,333.33 C 4.61,334.43 5.01,335.43 5.01,335.58 C 5.01,337.05 9.46,344.03 13.33,348.68 C 16.76,352.78 29.18,360.48 36.51,363.03 C 37.41,363.33 38.53,363.80 39.03,364.05 C 40.11,364.58 50.41,368.03 50.93,368.03 C 51.13,368.03 52.78,368.48 54.61,369.00 C 59.68,370.53 64.68,371.95 66.96,372.50 C 75.21,374.58 77.03,375.03 78.88,375.50 C 81.06,376.05 84.58,376.85 87.88,377.50 C 89.26,377.78 91.53,378.23 92.96,378.50 C 94.36,378.80 96.66,379.25 98.08,379.55 C 99.48,379.83 101.76,380.28 103.13,380.55 C 104.51,380.83 106.66,381.28 107.88,381.55 C 109.13,381.80 110.53,382.03 111.01,382.03 C 111.48,382.03 112.96,382.25 114.26,382.53 C 115.56,382.83 117.66,383.28 118.88,383.55 C 120.13,383.83 121.58,384.03 122.13,384.03 C 122.68,384.03 123.98,384.25 125.01,384.53 C 126.03,384.80 127.38,385.03 128.01,385.03 C 128.63,385.03 129.98,385.25 131.01,385.53 C 132.03,385.80 133.61,386.03 134.51,386.03 C 135.41,386.03 136.98,386.25 138.01,386.53 C 139.03,386.80 140.61,387.03 141.51,387.03 C 142.41,387.03 143.98,387.25 145.01,387.53 C 146.03,387.80 147.61,388.03 148.51,388.03 C 149.41,388.03 150.98,388.25 152.01,388.53 C 153.03,388.80 154.61,389.03 155.51,389.03 C 156.41,389.03 157.98,389.25 159.01,389.53 C 160.13,389.83 161.73,390.03 163.01,390.03 C 164.28,390.03 165.88,390.23 167.01,390.53 C 168.28,390.85 169.73,391.03 171.51,391.03 C 173.28,391.03 174.73,391.20 176.01,391.53 C 177.28,391.85 178.73,392.03 180.51,392.03 C 182.28,392.03 183.73,392.20 185.01,392.53 C 186.36,392.88 187.71,393.03 189.88,393.03 C 192.08,393.03 193.48,393.15 195.16,393.55 C 198.53,394.38 200.31,393.80 201.46,391.53 C 202.28,389.90 202.33,353.15 201.51,350.03 C 201.23,349.00 201.01,347.65 201.01,347.05 C 201.01,344.28 198.13,335.28 195.73,330.48 C 192.18,323.40 186.48,316.08 182.31,313.23 C 181.66,312.80 180.53,311.95 179.78,311.33 C 179.03,310.73 177.83,309.95 177.16,309.60 C 176.46,309.25 175.26,308.53 174.51,308.03 C 173.73,307.50 170.38,305.70 167.01,304.03 C 163.63,302.35 160.26,300.55 159.51,300.03 C 158.76,299.50 155.38,297.70 152.01,296.03 C 148.63,294.35 145.28,292.55 144.51,292.03 C 143.76,291.50 141.28,290.15 139.01,289.03 C 136.73,287.90 134.26,286.55 133.51,286.03 C 132.76,285.53 131.18,284.63 130.01,284.03 C 124.96,281.48 119.51,276.73 116.46,272.20 C 113.56,267.90 111.01,261.75 111.01,259.05 C 111.01,258.43 110.78,257.05 110.51,256.03 C 110.03,254.20 110.01,253.08 110.01,206.03 C 110.01,158.98 110.03,157.85 110.51,156.03 C 110.78,155.00 111.01,153.85 111.01,153.50 C 111.01,152.60 112.16,148.90 112.88,147.38 C 114.01,145.10 118.63,140.73 121.36,139.40 C 125.98,137.10 129.38,136.55 132.88,137.50 C 133.86,137.75 135.06,138.05 135.56,138.13 C 136.71,138.33 143.53,141.68 145.46,143.00 C 146.23,143.53 147.38,144.20 148.01,144.53 C 148.63,144.85 149.76,145.53 150.51,146.03 C 151.26,146.55 152.83,147.45 154.01,148.03 C 155.18,148.60 156.76,149.50 157.51,150.03 C 158.26,150.55 159.83,151.45 161.01,152.03 C 162.18,152.60 163.76,153.50 164.51,154.03 C 165.26,154.53 166.38,155.20 167.01,155.53 C 167.63,155.85 168.76,156.53 169.51,157.03 C 170.26,157.55 172.26,158.65 173.93,159.48 C 175.61,160.33 177.81,161.55 178.86,162.20 C 179.88,162.85 181.38,163.78 182.18,164.25 C 182.98,164.73 184.23,165.45 184.96,165.88 C 185.68,166.30 187.13,167.18 188.16,167.85 C 189.18,168.50 190.93,169.48 192.01,170.03 C 193.08,170.58 194.83,171.55 195.86,172.20 C 196.88,172.88 198.33,173.75 199.06,174.18 C 199.78,174.60 201.03,175.33 201.83,175.80 C 202.63,176.28 204.13,177.18 205.16,177.85 C 206.18,178.50 207.96,179.50 209.08,180.08 C 210.21,180.63 211.63,181.43 212.26,181.85 C 213.41,182.65 215.93,184.10 218.23,185.33 C 220.71,186.60 223.63,186.13 224.58,184.28 C 224.98,183.45 225.01,181.58 224.96,153.15 C 224.88,122.90 224.88,122.90 223.86,120.78 C 223.31,119.60 222.51,118.28 222.13,117.83 C 221.41,116.95 215.01,112.55 213.01,111.53 C 212.38,111.20 210.58,110.08 209.01,109.03 C 207.43,107.98 205.63,106.85 205.03,106.53 C 204.41,106.23 201.26,104.20 198.01,102.03 C 194.76,99.85 191.61,97.83 190.98,97.53 C 190.38,97.20 188.58,96.08 187.01,95.03 C 185.43,93.98 183.63,92.85 183.01,92.53 C 182.38,92.20 180.58,91.08 179.01,90.03 C 177.43,88.98 175.63,87.85 175.03,87.53 C 174.41,87.23 171.26,85.20 168.01,83.03 C 164.76,80.85 161.61,78.83 160.98,78.53 C 160.38,78.20 158.58,77.08 157.01,76.03 C 155.43,74.98 153.63,73.85 153.01,73.53 C 152.38,73.20 150.58,72.08 149.01,71.03 C 147.43,69.98 145.63,68.85 145.01,68.53 C 144.41,68.23 141.93,66.65 139.51,65.03 C 137.08,63.40 134.61,61.83 134.01,61.53 C 133.38,61.20 131.58,60.08 130.01,59.03 C 128.43,57.98 126.63,56.85 126.01,56.53 C 125.41,56.23 122.93,54.65 120.51,53.03 C 118.08,51.40 115.61,49.83 115.01,49.53 C 114.38,49.20 112.58,48.08 111.01,47.03 C 109.43,45.98 107.63,44.85 107.01,44.53 C 106.38,44.20 104.58,43.08 103.01,42.03 C 101.43,40.98 99.66,39.85 99.06,39.55 C 98.46,39.25 96.48,38.03 94.63,36.83 C 92.81,35.63 90.66,34.28 89.91,33.83 C 86.41,31.80 85.61,31.33 83.86,30.23 C 82.86,29.58 81.53,28.80 80.96,28.50 C 80.36,28.20 78.58,27.08 77.01,26.03 C 75.43,24.98 73.66,23.85 73.06,23.55 C 72.48,23.25 71.16,22.48 70.16,21.83 C 69.13,21.18 67.68,20.30 66.96,19.88 C 66.23,19.45 64.98,18.73 64.18,18.25 C 63.38,17.78 61.88,16.88 60.86,16.20 C 59.83,15.55 58.06,14.55 56.93,13.98 C 55.81,13.43 54.26,12.55 53.51,12.03 C 52.76,11.53 51.63,10.85 51.01,10.53 C 50.38,10.20 49.26,9.53 48.51,9.03 C 44.03,6.00 35.03,2.23 28.23,0.55 C 25.08,-0.22 20.41,-0.17 17.63,0.65"/>
  <path fill="#8B3A2E" d="M 444.88,0.55 C 443.93,0.80 442.83,1.03 442.48,1.03 C 441.58,1.03 438.16,2.08 436.11,2.98 C 435.16,3.40 433.81,3.93 433.13,4.18 C 431.38,4.75 423.16,8.90 421.51,10.03 C 420.76,10.53 419.21,11.43 418.08,11.98 C 416.96,12.55 415.21,13.55 414.18,14.20 C 413.16,14.88 411.76,15.70 411.11,16.08 C 409.93,16.75 409.28,17.13 404.51,20.03 C 403.33,20.73 401.73,21.70 400.96,22.18 C 400.16,22.65 398.86,23.40 398.08,23.88 C 397.28,24.35 395.68,25.33 394.51,26.03 C 389.73,28.93 389.08,29.30 387.91,29.98 C 387.26,30.35 385.88,31.18 384.86,31.83 C 383.83,32.48 382.53,33.25 381.96,33.55 C 381.36,33.85 379.58,34.98 378.01,36.03 C 376.43,37.08 374.66,38.20 374.06,38.50 C 373.46,38.80 371.48,40.03 369.63,41.23 C 367.81,42.43 365.66,43.78 364.91,44.20 C 361.41,46.25 360.61,46.73 358.86,47.83 C 357.86,48.48 356.53,49.25 355.96,49.55 C 355.38,49.85 352.93,51.40 350.51,53.03 C 348.08,54.65 345.61,56.23 345.01,56.53 C 344.38,56.85 342.58,57.98 341.01,59.03 C 339.43,60.08 337.63,61.20 337.01,61.53 C 336.38,61.85 334.58,62.98 333.01,64.03 C 331.43,65.08 329.63,66.20 329.01,66.53 C 328.41,66.83 325.93,68.40 323.51,70.03 C 321.08,71.65 318.61,73.23 318.01,73.53 C 317.38,73.85 315.58,74.98 314.01,76.03 C 312.43,77.08 310.63,78.20 310.01,78.53 C 309.41,78.83 306.93,80.40 304.51,82.03 C 302.08,83.65 299.61,85.23 299.01,85.53 C 298.41,85.83 295.93,87.40 293.51,89.03 C 291.08,90.65 288.61,92.23 288.01,92.53 C 287.41,92.83 284.93,94.40 282.51,96.03 C 280.08,97.65 277.61,99.23 277.01,99.53 C 276.41,99.83 273.93,101.40 271.51,103.03 C 269.08,104.65 266.61,106.23 266.01,106.53 C 265.38,106.85 263.58,107.98 262.01,109.03 C 260.43,110.08 258.63,111.20 258.01,111.53 C 253.31,113.93 247.68,118.48 246.73,120.68 C 244.91,124.75 245.01,123.00 245.01,153.53 C 245.01,183.90 244.96,182.70 246.51,184.58 C 248.23,186.65 250.51,186.23 255.86,182.85 C 256.88,182.18 258.38,181.28 259.18,180.80 C 259.98,180.33 261.23,179.60 261.96,179.18 C 262.68,178.75 264.13,177.88 265.16,177.20 C 266.18,176.55 267.96,175.55 269.08,174.98 C 270.21,174.43 271.76,173.55 272.51,173.03 C 273.26,172.53 274.38,171.85 275.01,171.53 C 275.63,171.20 276.76,170.53 277.51,170.03 C 278.26,169.50 279.83,168.60 281.01,168.03 C 282.18,167.45 283.76,166.55 284.51,166.03 C 285.26,165.53 286.38,164.85 287.01,164.53 C 287.63,164.20 288.76,163.53 289.51,163.03 C 290.26,162.50 291.83,161.60 293.01,161.03 C 294.18,160.45 295.76,159.55 296.51,159.03 C 297.26,158.50 298.83,157.60 300.01,157.03 C 301.18,156.45 302.76,155.55 303.51,155.03 C 304.26,154.53 305.38,153.85 306.01,153.53 C 306.63,153.20 307.76,152.53 308.51,152.03 C 309.26,151.50 311.28,150.38 313.01,149.53 C 314.73,148.68 316.76,147.55 317.51,147.03 C 318.26,146.50 319.83,145.60 321.01,145.03 C 322.18,144.45 323.78,143.53 324.56,143.00 C 326.73,141.53 333.36,138.35 335.73,137.65 C 338.73,136.75 343.26,136.75 346.21,137.63 C 349.68,138.68 350.18,138.98 354.58,142.55 C 356.93,144.45 359.43,149.50 360.01,153.53 C 360.16,154.43 360.43,155.78 360.63,156.53 C 361.28,158.98 361.18,253.48 360.51,256.03 C 360.23,257.05 360.01,258.43 360.01,259.05 C 360.01,260.95 358.88,264.18 356.66,268.68 C 354.53,272.95 354.53,272.95 350.31,277.18 C 347.08,280.43 345.71,281.63 344.48,282.25 C 343.61,282.73 342.26,283.53 341.51,284.03 C 340.76,284.55 338.28,285.90 336.01,287.03 C 333.73,288.15 331.26,289.50 330.51,290.03 C 329.76,290.55 327.28,291.90 325.01,293.03 C 322.73,294.15 320.26,295.50 319.51,296.03 C 318.76,296.55 315.83,298.13 313.01,299.53 C 310.18,300.93 307.26,302.50 306.51,303.03 C 305.76,303.55 302.83,305.13 300.01,306.53 C 295.03,309.00 292.31,310.65 290.01,312.53 C 289.38,313.03 288.38,313.78 287.76,314.20 C 286.31,315.18 283.18,318.30 282.18,319.78 C 281.76,320.40 281.01,321.40 280.51,322.03 C 276.91,326.43 271.63,337.03 271.11,340.90 C 270.98,341.85 270.56,344.00 269.48,348.90 C 268.91,351.68 268.68,390.45 269.26,391.53 C 270.08,393.08 276.71,393.65 281.01,392.53 C 282.38,392.18 283.73,392.03 286.01,392.03 C 288.28,392.03 289.63,391.88 291.01,391.53 C 292.13,391.23 293.73,391.03 295.01,391.03 C 296.28,391.03 297.88,390.83 299.01,390.53 C 300.28,390.20 301.73,390.03 303.51,390.03 C 305.28,390.03 306.73,389.85 308.01,389.53 C 309.13,389.23 310.73,389.03 312.01,389.03 C 313.28,389.03 314.88,388.83 316.01,388.53 C 317.13,388.23 318.73,388.03 320.01,388.03 C 321.28,388.03 322.88,387.83 324.01,387.53 C 325.03,387.25 326.38,387.03 327.01,387.03 C 327.63,387.03 328.98,386.80 330.01,386.53 C 331.03,386.25 332.61,386.03 333.51,386.03 C 334.41,386.03 335.98,385.80 337.01,385.53 C 338.03,385.25 339.61,385.03 340.51,385.03 C 341.41,385.03 342.98,384.80 344.01,384.53 C 345.03,384.25 346.33,384.03 346.88,384.03 C 347.43,384.03 348.91,383.83 350.13,383.55 C 351.38,383.28 353.46,382.83 354.76,382.53 C 356.06,382.25 357.53,382.03 358.01,382.03 C 358.48,382.03 359.96,381.80 361.26,381.53 C 362.56,381.23 364.66,380.78 365.88,380.50 C 367.13,380.23 368.58,380.03 369.11,380.03 C 369.66,380.03 370.98,379.80 372.06,379.53 C 373.13,379.25 374.88,378.80 375.96,378.53 C 377.03,378.25 378.41,378.03 379.01,378.03 C 380.01,378.03 380.98,377.83 385.88,376.55 C 386.86,376.30 388.71,375.85 390.01,375.58 C 391.31,375.30 393.51,374.80 394.88,374.50 C 396.26,374.20 398.86,373.53 400.63,373.00 C 402.43,372.48 404.83,371.83 406.01,371.53 C 407.18,371.23 409.61,370.55 411.41,370.00 C 413.23,369.48 414.88,369.03 415.08,369.03 C 415.31,369.03 419.86,367.55 425.23,365.78 C 434.83,362.58 435.13,362.48 441.71,359.18 C 445.66,357.20 448.96,355.38 449.76,354.73 C 450.51,354.13 451.66,353.28 452.28,352.83 C 456.31,350.10 461.53,343.15 465.01,335.93 C 466.86,332.10 467.33,330.73 468.48,326.15 C 468.76,325.05 469.21,323.25 469.48,322.13 C 469.86,320.75 470.01,319.30 470.01,317.50 C 470.01,315.73 470.18,314.30 470.51,313.03 C 471.18,310.45 471.31,26.00 470.63,23.53 C 470.43,22.78 470.13,21.40 470.01,20.50 C 468.86,12.70 464.33,6.23 457.71,2.90 C 455.76,1.93 454.08,1.25 453.33,1.15 C 452.68,1.08 451.21,0.78 450.08,0.53 C 447.61,-0.07 447.16,-0.07 444.88,0.55"/>
</svg>
