<svg xmlns="http://www.w3.org/2000/svg" width="996.5" height="554.0" viewBox="0 0 996.50 554.03" role="img" aria-label="Mob Translate">
  <title>Mob Translate</title>
  <path fill="#A26158" d="M 280.69,0.65 C 276.97,1.78 272.42,4.25 270.52,6.20 C 267.79,8.95 264.57,14.18 264.17,16.53 C 264.09,17.00 263.79,18.18 263.54,19.15 C 263.07,20.85 263.07,24.65 263.07,169.40 C 263.07,335.45 262.87,317.10 264.62,325.03 C 265.32,328.28 266.17,331.00 267.19,333.33 C 267.67,334.43 268.07,335.43 268.07,335.58 C 268.07,337.05 272.52,344.03 276.39,348.68 C 279.82,352.78 292.24,360.48 299.57,363.03 C 300.47,363.33 301.59,363.80 302.09,364.05 C 303.17,364.58 313.47,368.03 313.99,368.03 C 314.19,368.03 315.84,368.48 317.67,369.00 C 322.74,370.53 327.74,371.95 330.02,372.50 C 338.27,374.58 340.09,375.03 341.94,375.50 C 344.12,376.05 347.64,376.85 350.94,377.50 C 352.32,377.78 354.59,378.23 356.02,378.50 C 357.42,378.80 359.72,379.25 361.14,379.55 C 362.54,379.83 364.82,380.28 366.19,380.55 C 367.57,380.83 369.72,381.28 370.94,381.55 C 372.19,381.80 373.59,382.03 374.07,382.03 C 374.54,382.03 376.02,382.25 377.32,382.53 C 378.62,382.83 380.72,383.28 381.94,383.55 C 383.19,383.83 384.64,384.03 385.19,384.03 C 385.74,384.03 387.04,384.25 388.07,384.53 C 389.09,384.80 390.44,385.03 391.07,385.03 C 391.69,385.03 393.04,385.25 394.07,385.53 C 395.09,385.80 396.67,386.03 397.57,386.03 C 398.47,386.03 400.04,386.25 401.07,386.53 C 402.09,386.80 403.67,387.03 404.57,387.03 C 405.47,387.03 407.04,387.25 408.07,387.53 C 409.09,387.80 410.67,388.03 411.57,388.03 C 412.47,388.03 414.04,388.25 415.07,388.53 C 416.09,388.80 417.67,389.03 418.57,389.03 C 419.47,389.03 421.04,389.25 422.07,389.53 C 423.19,389.83 424.79,390.03 426.07,390.03 C 427.34,390.03 428.94,390.23 430.07,390.53 C 431.34,390.85 432.79,391.03 434.57,391.03 C 436.34,391.03 437.79,391.20 439.07,391.53 C 440.34,391.85 441.79,392.03 443.57,392.03 C 445.34,392.03 446.79,392.20 448.07,392.53 C 449.42,392.88 450.77,393.03 452.94,393.03 C 455.14,393.03 456.54,393.15 458.22,393.55 C 461.59,394.38 463.37,393.80 464.52,391.53 C 465.34,389.90 465.39,353.15 464.57,350.03 C 464.29,349.00 464.07,347.65 464.07,347.05 C 464.07,344.28 461.19,335.28 458.79,330.48 C 455.24,323.40 449.54,316.08 445.37,313.23 C 444.72,312.80 443.59,311.95 442.84,311.33 C 442.09,310.73 440.89,309.95 440.22,309.60 C 439.52,309.25 438.32,308.53 437.57,308.03 C 436.79,307.50 433.44,305.70 430.07,304.03 C 426.69,302.35 423.32,300.55 422.57,300.03 C 421.82,299.50 418.44,297.70 415.07,296.03 C 411.69,294.35 408.34,292.55 407.57,292.03 C 406.82,291.50 404.34,290.15 402.07,289.03 C 399.79,287.90 397.32,286.55 396.57,286.03 C 395.82,285.53 394.24,284.63 393.07,284.03 C 388.02,281.48 382.57,276.73 379.52,272.20 C 376.62,267.90 374.07,261.75 374.07,259.05 C 374.07,258.43 373.84,257.05 373.57,256.03 C 373.09,254.20 373.07,253.08 373.07,206.03 C 373.07,158.98 373.09,157.85 373.57,156.03 C 373.84,155.00 374.07,153.85 374.07,153.50 C 374.07,152.60 375.22,148.90 375.94,147.38 C 377.07,145.10 381.69,140.73 384.42,139.40 C 389.04,137.10 392.44,136.55 395.94,137.50 C 396.92,137.75 398.12,138.05 398.62,138.13 C 399.77,138.33 406.59,141.68 408.52,143.00 C 409.29,143.53 410.44,144.20 411.07,144.53 C 411.69,144.85 412.82,145.53 413.57,146.03 C 414.32,146.55 415.89,147.45 417.07,148.03 C 418.24,148.60 419.82,149.50 420.57,150.03 C 421.32,150.55 422.89,151.45 424.07,152.03 C 425.24,152.60 426.82,153.50 427.57,154.03 C 428.32,154.53 429.44,155.20 430.07,155.53 C 430.69,155.85 431.82,156.53 432.57,157.03 C 433.32,157.55 435.32,158.65 436.99,159.48 C 438.67,160.33 440.87,161.55 441.92,162.20 C 442.94,162.85 444.44,163.78 445.24,164.25 C 446.04,164.73 447.29,165.45 448.02,165.88 C 448.74,166.30 450.19,167.18 451.22,167.85 C 452.24,168.50 453.99,169.48 455.07,170.03 C 456.14,170.58 457.89,171.55 458.92,172.20 C 459.94,172.88 461.39,173.75 462.12,174.18 C 462.84,174.60 464.09,175.33 464.89,175.80 C 465.69,176.28 467.19,177.18 468.22,177.85 C 469.24,178.50 471.02,179.50 472.14,180.08 C 473.27,180.63 474.69,181.43 475.32,181.85 C 476.47,182.65 478.99,184.10 481.29,185.33 C 483.77,186.60 486.69,186.13 487.64,184.28 C 488.04,183.45 488.07,181.58 488.02,153.15 C 487.94,122.90 487.94,122.90 486.92,120.78 C 486.37,119.60 485.57,118.28 485.19,117.83 C 484.47,116.95 478.07,112.55 476.07,111.53 C 475.44,111.20 473.64,110.08 472.07,109.03 C 470.49,107.98 468.69,106.85 468.09,106.53 C 467.47,106.23 464.32,104.20 461.07,102.03 C 457.82,99.85 454.67,97.83 454.04,97.53 C 453.44,97.20 451.64,96.08 450.07,95.03 C 448.49,93.98 446.69,92.85 446.07,92.53 C 445.44,92.20 443.64,91.08 442.07,90.03 C 440.49,88.98 438.69,87.85 438.09,87.53 C 437.47,87.23 434.32,85.20 431.07,83.03 C 427.82,80.85 424.67,78.83 424.04,78.53 C 423.44,78.20 421.64,77.08 420.07,76.03 C 418.49,74.98 416.69,73.85 416.07,73.53 C 415.44,73.20 413.64,72.08 412.07,71.03 C 410.49,69.98 408.69,68.85 408.07,68.53 C 407.47,68.23 404.99,66.65 402.57,65.03 C 400.14,63.40 397.67,61.83 397.07,61.53 C 396.44,61.20 394.64,60.08 393.07,59.03 C 391.49,57.98 389.69,56.85 389.07,56.53 C 388.47,56.23 385.99,54.65 383.57,53.03 C 381.14,51.40 378.67,49.83 378.07,49.53 C 377.44,49.20 375.64,48.08 374.07,47.03 C 372.49,45.98 370.69,44.85 370.07,44.53 C 369.44,44.20 367.64,43.08 366.07,42.03 C 364.49,40.98 362.72,39.85 362.12,39.55 C 361.52,39.25 359.54,38.03 357.69,36.83 C 355.87,35.63 353.72,34.28 352.97,33.83 C 349.47,31.80 348.67,31.33 346.92,30.23 C 345.92,29.58 344.59,28.80 344.02,28.50 C 343.42,28.20 341.64,27.08 340.07,26.03 C 338.49,24.98 336.72,23.85 336.12,23.55 C 335.54,23.25 334.22,22.48 333.22,21.83 C 332.19,21.18 330.74,20.30 330.02,19.88 C 329.29,19.45 328.04,18.73 327.24,18.25 C 326.44,17.78 324.94,16.88 323.92,16.20 C 322.89,15.55 321.12,14.55 319.99,13.98 C 318.87,13.43 317.32,12.55 316.57,12.03 C 315.82,11.53 314.69,10.85 314.07,10.53 C 313.44,10.20 312.32,9.53 311.57,9.03 C 307.09,6.00 298.09,2.23 291.29,0.55 C 288.14,-0.22 283.47,-0.17 280.69,0.65"/>
  <path fill="#3B434C" d="M 707.94,0.55 C 706.99,0.80 705.89,1.03 705.54,1.03 C 704.64,1.03 701.22,2.08 699.17,2.98 C 698.22,3.40 696.87,3.93 696.19,4.18 C 694.44,4.75 686.22,8.90 684.57,10.03 C 683.82,10.53 682.27,11.43 681.14,11.98 C 680.02,12.55 678.27,13.55 677.24,14.20 C 676.22,14.88 674.82,15.70 674.17,16.08 C 672.99,16.75 672.34,17.13 667.57,20.03 C 666.39,20.73 664.79,21.70 664.02,22.18 C 663.22,22.65 661.92,23.40 661.14,23.88 C 660.34,24.35 658.74,25.33 657.57,26.03 C 652.79,28.93 652.14,29.30 650.97,29.98 C 650.32,30.35 648.94,31.18 647.92,31.83 C 646.89,32.48 645.59,33.25 645.02,33.55 C 644.42,33.85 642.64,34.98 641.07,36.03 C 639.49,37.08 637.72,38.20 637.12,38.50 C 636.52,38.80 634.54,40.03 632.69,41.23 C 630.87,42.43 628.72,43.78 627.97,44.20 C 624.47,46.25 623.67,46.73 621.92,47.83 C 620.92,48.48 619.59,49.25 619.02,49.55 C 618.44,49.85 615.99,51.40 613.57,53.03 C 611.14,54.65 608.67,56.23 608.07,56.53 C 607.44,56.85 605.64,57.98 604.07,59.03 C 602.49,60.08 600.69,61.20 600.07,61.53 C 599.44,61.85 597.64,62.98 596.07,64.03 C 594.49,65.08 592.69,66.20 592.07,66.53 C 591.47,66.83 588.99,68.40 586.57,70.03 C 584.14,71.65 581.67,73.23 581.07,73.53 C 580.44,73.85 578.64,74.98 577.07,76.03 C 575.49,77.08 573.69,78.20 573.07,78.53 C 572.47,78.83 569.99,80.40 567.57,82.03 C 565.14,83.65 562.67,85.23 562.07,85.53 C 561.47,85.83 558.99,87.40 556.57,89.03 C 554.14,90.65 551.67,92.23 551.07,92.53 C 550.47,92.83 547.99,94.40 545.57,96.03 C 543.14,97.65 540.67,99.23 540.07,99.53 C 539.47,99.83 536.99,101.40 534.57,103.03 C 532.14,104.65 529.67,106.23 529.07,106.53 C 528.44,106.85 526.64,107.98 525.07,109.03 C 523.49,110.08 521.69,111.20 521.07,111.53 C 516.37,113.93 510.74,118.48 509.79,120.68 C 507.97,124.75 508.07,123.00 508.07,153.53 C 508.07,183.90 508.02,182.70 509.57,184.58 C 511.29,186.65 513.57,186.23 518.92,182.85 C 519.94,182.18 521.44,181.28 522.24,180.80 C 523.04,180.33 524.29,179.60 525.02,179.18 C 525.74,178.75 527.19,177.88 528.22,177.20 C 529.24,176.55 531.02,175.55 532.14,174.98 C 533.27,174.43 534.82,173.55 535.57,173.03 C 536.32,172.53 537.44,171.85 538.07,171.53 C 538.69,171.20 539.82,170.53 540.57,170.03 C 541.32,169.50 542.89,168.60 544.07,168.03 C 545.24,167.45 546.82,166.55 547.57,166.03 C 548.32,165.53 549.44,164.85 550.07,164.53 C 550.69,164.20 551.82,163.53 552.57,163.03 C 553.32,162.50 554.89,161.60 556.07,161.03 C 557.24,160.45 558.82,159.55 559.57,159.03 C 560.32,158.50 561.89,157.60 563.07,157.03 C 564.24,156.45 565.82,155.55 566.57,155.03 C 567.32,154.53 568.44,153.85 569.07,153.53 C 569.69,153.20 570.82,152.53 571.57,152.03 C 572.32,151.50 574.34,150.38 576.07,149.53 C 577.79,148.68 579.82,147.55 580.57,147.03 C 581.32,146.50 582.89,145.60 584.07,145.03 C 585.24,144.45 586.84,143.53 587.62,143.00 C 589.79,141.53 596.42,138.35 598.79,137.65 C 601.79,136.75 606.32,136.75 609.27,137.63 C 612.74,138.68 613.24,138.98 617.64,142.55 C 619.99,144.45 622.49,149.50 623.07,153.53 C 623.22,154.43 623.49,155.78 623.69,156.53 C 624.34,158.98 624.24,253.48 623.57,256.03 C 623.29,257.05 623.07,258.43 623.07,259.05 C 623.07,260.95 621.94,264.18 619.72,268.68 C 617.59,272.95 617.59,272.95 613.37,277.18 C 610.14,280.43 608.77,281.63 607.54,282.25 C 606.67,282.73 605.32,283.53 604.57,284.03 C 603.82,284.55 601.34,285.90 599.07,287.03 C 596.79,288.15 594.32,289.50 593.57,290.03 C 592.82,290.55 590.34,291.90 588.07,293.03 C 585.79,294.15 583.32,295.50 582.57,296.03 C 581.82,296.55 578.89,298.13 576.07,299.53 C 573.24,300.93 570.32,302.50 569.57,303.03 C 568.82,303.55 565.89,305.13 563.07,306.53 C 558.09,309.00 555.37,310.65 553.07,312.53 C 552.44,313.03 551.44,313.78 550.82,314.20 C 549.37,315.18 546.24,318.30 545.24,319.78 C 544.82,320.40 544.07,321.40 543.57,322.03 C 539.97,326.43 534.69,337.03 534.17,340.90 C 534.04,341.85 533.62,344.00 532.54,348.90 C 531.97,351.68 531.74,390.45 532.32,391.53 C 533.14,393.08 539.77,393.65 544.07,392.53 C 545.44,392.18 546.79,392.03 549.07,392.03 C 551.34,392.03 552.69,391.88 554.07,391.53 C 555.19,391.23 556.79,391.03 558.07,391.03 C 559.34,391.03 560.94,390.83 562.07,390.53 C 563.34,390.20 564.79,390.03 566.57,390.03 C 568.34,390.03 569.79,389.85 571.07,389.53 C 572.19,389.23 573.79,389.03 575.07,389.03 C 576.34,389.03 577.94,388.83 579.07,388.53 C 580.19,388.23 581.79,388.03 583.07,388.03 C 584.34,388.03 585.94,387.83 587.07,387.53 C 588.09,387.25 589.44,387.03 590.07,387.03 C 590.69,387.03 592.04,386.80 593.07,386.53 C 594.09,386.25 595.67,386.03 596.57,386.03 C 597.47,386.03 599.04,385.80 600.07,385.53 C 601.09,385.25 602.67,385.03 603.57,385.03 C 604.47,385.03 606.04,384.80 607.07,384.53 C 608.09,384.25 609.39,384.03 609.94,384.03 C 610.49,384.03 611.97,383.83 613.19,383.55 C 614.44,383.28 616.52,382.83 617.82,382.53 C 619.12,382.25 620.59,382.03 621.07,382.03 C 621.54,382.03 623.02,381.80 624.32,381.53 C 625.62,381.23 627.72,380.78 628.94,380.50 C 630.19,380.23 631.64,380.03 632.17,380.03 C 632.72,380.03 634.04,379.80 635.12,379.53 C 636.19,379.25 637.94,378.80 639.02,378.53 C 640.09,378.25 641.47,378.03 642.07,378.03 C 643.07,378.03 644.04,377.83 648.94,376.55 C 649.92,376.30 651.77,375.85 653.07,375.58 C 654.37,375.30 656.57,374.80 657.94,374.50 C 659.32,374.20 661.92,373.53 663.69,373.00 C 665.49,372.48 667.89,371.83 669.07,371.53 C 670.24,371.23 672.67,370.55 674.47,370.00 C 676.29,369.48 677.94,369.03 678.14,369.03 C 678.37,369.03 682.92,367.55 688.29,365.78 C 697.89,362.58 698.19,362.48 704.77,359.18 C 708.72,357.20 712.02,355.38 712.82,354.73 C 713.57,354.13 714.72,353.28 715.34,352.83 C 719.37,350.10 724.59,343.15 728.07,335.93 C 729.92,332.10 730.39,330.73 731.54,326.15 C 731.82,325.05 732.27,323.25 732.54,322.13 C 732.92,320.75 733.07,319.30 733.07,317.50 C 733.07,315.73 733.24,314.30 733.57,313.03 C 734.24,310.45 734.37,26.00 733.69,23.53 C 733.49,22.78 733.19,21.40 733.07,20.50 C 731.92,12.70 727.39,6.23 720.77,2.90 C 718.82,1.93 717.14,1.25 716.39,1.15 C 715.74,1.08 714.27,0.78 713.14,0.53 C 710.67,-0.07 710.22,-0.07 707.94,0.55"/>
  <path fill="#3B434C" d="M 145.07,469.53 C 144.47,469.85 143.69,470.00 142.62,470.03 C 141.57,470.03 140.72,470.18 140.07,470.53 C 139.52,470.80 138.62,471.03 138.07,471.03 C 137.52,471.03 136.62,471.25 136.07,471.53 C 135.52,471.80 134.87,472.03 134.57,472.03 C 133.94,472.03 129.87,474.05 128.47,475.05 C 126.37,476.55 124.92,477.53 124.04,478.03 C 122.87,478.65 117.72,483.75 117.17,484.83 C 116.94,485.28 116.44,486.05 116.07,486.53 C 115.17,487.68 111.07,495.88 111.07,496.53 C 111.07,496.83 110.84,497.48 110.57,498.03 C 110.29,498.58 110.07,499.48 110.07,500.03 C 110.07,500.58 109.84,501.48 109.57,502.03 C 109.09,502.95 109.07,503.50 109.07,511.53 C 109.07,519.55 109.09,520.10 109.57,521.03 C 109.84,521.58 110.07,522.48 110.07,523.03 C 110.07,523.58 110.29,524.48 110.57,525.03 C 110.84,525.58 111.07,526.25 111.07,526.53 C 111.07,526.80 111.29,527.48 111.57,528.03 C 111.84,528.58 112.07,529.23 112.07,529.53 C 112.07,530.18 114.17,534.38 115.07,535.53 C 115.44,536.00 115.94,536.78 116.17,537.23 C 116.72,538.28 124.84,546.40 125.89,546.93 C 126.34,547.15 127.09,547.65 127.57,548.03 C 128.72,548.93 130.92,550.03 131.57,550.03 C 131.84,550.03 132.97,550.48 134.07,551.03 C 135.42,551.70 136.39,552.03 137.07,552.03 C 137.64,552.03 138.52,552.25 139.07,552.53 C 139.62,552.80 140.52,553.03 141.07,553.03 C 141.62,553.03 142.52,553.25 143.07,553.53 C 143.99,554.00 144.54,554.03 152.07,554.03 C 159.59,554.03 160.14,554.00 161.07,553.53 C 161.82,553.15 162.54,553.03 164.07,553.03 C 165.59,553.03 166.32,552.90 167.07,552.53 C 167.62,552.25 168.27,552.03 168.57,552.03 C 168.84,552.03 171.54,550.80 174.54,549.28 C 180.02,546.55 180.02,546.55 183.79,542.80 C 185.84,540.73 187.74,538.68 187.97,538.23 C 188.19,537.78 188.69,537.00 189.07,536.53 C 189.97,535.38 193.07,529.18 193.07,528.53 C 193.07,528.23 193.29,527.58 193.57,527.03 C 193.84,526.48 194.07,525.80 194.07,525.53 C 194.07,525.25 194.29,524.58 194.57,524.03 C 194.84,523.48 195.07,522.58 195.07,522.03 C 195.07,521.48 195.29,520.58 195.57,520.03 C 196.04,519.13 196.07,518.55 196.07,512.03 C 196.07,505.50 196.04,504.93 195.57,504.03 C 195.22,503.38 195.07,502.55 195.07,501.53 C 195.07,500.50 194.92,499.68 194.57,499.03 C 194.29,498.48 194.07,497.83 194.07,497.53 C 194.07,497.25 193.62,496.13 193.07,495.03 C 192.52,493.93 192.07,492.80 192.07,492.53 C 192.07,491.68 189.67,487.23 188.57,486.03 C 187.99,485.40 187.32,484.48 187.04,483.98 C 186.44,482.80 182.32,478.68 181.09,478.00 C 180.22,477.53 178.77,476.55 176.67,475.05 C 175.27,474.05 171.19,472.03 170.57,472.03 C 170.27,472.03 169.62,471.80 169.07,471.53 C 168.52,471.25 167.62,471.03 167.07,471.03 C 166.52,471.03 165.62,470.80 165.07,470.53 C 164.42,470.18 163.59,470.03 162.57,470.03 C 161.54,470.03 160.72,469.88 160.07,469.53 C 158.59,468.78 146.44,468.78 145.07,469.53 M 156.07,488.53 C 156.72,488.85 157.54,489.03 158.57,489.03 C 160.37,489.03 164.17,490.78 166.07,492.53 C 166.69,493.08 167.62,493.78 168.12,494.03 C 168.62,494.30 169.22,494.78 169.44,495.08 C 169.64,495.40 170.22,496.20 170.69,496.90 C 171.89,498.63 174.07,502.90 174.07,503.53 C 174.07,503.83 174.29,504.48 174.57,505.03 C 175.02,505.93 175.07,506.50 175.07,511.53 C 175.07,516.55 175.02,517.13 174.57,518.03 C 174.29,518.58 174.07,519.45 174.07,520.03 C 174.07,522.13 171.94,525.65 168.79,528.78 C 166.12,531.43 165.84,531.63 162.54,533.30 C 159.07,535.03 159.07,535.03 152.57,535.03 C 146.54,535.03 145.97,534.98 145.07,534.53 C 144.52,534.25 143.82,534.03 143.49,534.03 C 143.19,534.03 142.37,533.63 141.69,533.15 C 139.09,531.30 137.92,530.53 137.02,530.03 C 136.52,529.75 135.92,529.28 135.69,528.98 C 135.49,528.65 134.92,527.83 134.44,527.15 C 133.24,525.43 131.07,521.15 131.07,520.53 C 131.07,520.23 130.84,519.58 130.57,519.03 C 130.12,518.13 130.07,517.55 130.07,512.03 C 130.07,506.50 130.12,505.93 130.57,505.03 C 130.84,504.48 131.07,503.83 131.07,503.53 C 131.07,502.15 134.52,496.08 136.37,494.28 C 138.57,492.08 144.22,489.03 146.12,489.03 C 146.72,489.00 147.59,488.80 148.07,488.53 C 149.37,487.80 154.67,487.80 156.07,488.53 M 668.07,469.53 C 667.34,469.93 666.67,470.00 664.12,470.03 C 661.54,470.03 660.89,470.10 660.07,470.53 C 659.52,470.80 658.62,471.03 658.07,471.03 C 657.52,471.03 656.62,471.25 656.07,471.53 C 655.52,471.80 654.87,472.03 654.57,472.03 C 654.29,472.03 652.49,472.80 650.59,473.75 C 646.97,475.58 643.27,478.68 642.17,480.83 C 641.94,481.28 641.37,482.15 640.89,482.75 C 640.44,483.35 640.07,484.13 640.07,484.45 C 640.07,484.78 639.84,485.48 639.57,486.03 C 639.29,486.58 639.07,487.25 639.07,487.53 C 639.07,487.80 638.84,488.48 638.57,489.03 C 638.12,489.93 638.07,490.50 638.07,495.53 C 638.07,500.55 638.12,501.13 638.57,502.03 C 638.84,502.58 639.07,503.25 639.07,503.53 C 639.07,503.80 639.29,504.48 639.57,505.03 C 639.84,505.58 640.07,506.28 640.07,506.60 C 640.07,507.23 640.62,508.03 641.92,509.40 C 642.29,509.80 642.77,510.45 642.97,510.85 C 643.17,511.23 643.74,511.80 644.27,512.13 C 644.77,512.45 645.64,513.15 646.19,513.65 C 646.74,514.13 647.54,514.73 647.94,514.95 C 648.37,515.18 649.19,515.73 649.79,516.20 C 650.39,516.65 651.17,517.03 651.49,517.03 C 651.82,517.03 652.52,517.25 653.07,517.53 C 653.62,517.80 654.52,518.03 655.07,518.03 C 655.62,518.03 656.52,518.25 657.07,518.53 C 657.72,518.88 658.54,519.03 659.57,519.03 C 660.59,519.03 661.42,519.18 662.07,519.53 C 662.87,519.93 663.54,520.03 665.57,520.03 C 667.59,520.03 668.27,520.13 669.07,520.53 C 669.94,520.98 670.54,521.03 674.57,521.03 C 678.59,521.03 679.19,521.08 680.07,521.53 C 680.82,521.90 681.54,522.03 683.07,522.03 C 685.39,522.03 687.17,522.75 688.94,524.45 C 692.59,527.88 691.64,531.65 686.52,534.30 C 685.22,534.95 684.87,535.03 682.57,535.03 C 680.54,535.03 679.87,535.13 679.07,535.53 C 678.22,535.98 677.59,536.03 674.07,536.03 C 670.54,536.03 669.92,535.98 669.07,535.53 C 668.22,535.10 667.59,535.03 664.57,535.03 C 661.54,535.03 660.92,534.95 660.07,534.53 C 659.42,534.18 658.59,534.03 657.57,534.03 C 656.54,534.03 655.72,533.88 655.07,533.53 C 654.52,533.25 653.62,533.03 653.07,533.03 C 652.52,533.03 651.62,532.80 651.07,532.53 C 650.52,532.25 649.84,532.03 649.57,532.03 C 649.29,532.03 648.62,531.80 648.07,531.53 C 647.52,531.25 646.87,531.03 646.57,531.03 C 646.29,531.03 645.27,530.63 644.32,530.15 C 640.92,528.45 641.07,528.03 641.07,539.03 C 641.07,549.05 641.07,549.03 642.54,549.03 C 642.84,549.03 643.52,549.25 644.07,549.53 C 644.62,549.80 645.29,550.03 645.57,550.03 C 645.84,550.03 646.52,550.25 647.07,550.53 C 647.62,550.80 648.52,551.03 649.07,551.03 C 649.62,551.03 650.52,551.25 651.07,551.53 C 651.72,551.88 652.54,552.03 653.57,552.03 C 654.59,552.03 655.42,552.18 656.07,552.53 C 656.87,552.93 657.54,553.03 659.57,553.03 C 661.59,553.03 662.27,553.13 663.07,553.53 C 663.99,554.00 664.54,554.03 673.57,554.03 C 682.59,554.03 683.14,554.00 684.07,553.53 C 684.87,553.13 685.54,553.03 687.57,553.03 C 689.59,553.03 690.27,552.93 691.07,552.53 C 691.62,552.25 692.29,552.03 692.57,552.03 C 692.84,552.03 693.52,551.80 694.07,551.53 C 694.62,551.25 695.27,551.03 695.57,551.03 C 696.22,551.03 700.42,548.93 701.57,548.03 C 702.04,547.65 702.79,547.18 703.19,546.95 C 704.22,546.45 706.47,544.20 706.97,543.20 C 707.19,542.75 707.69,542.00 708.07,541.53 C 708.97,540.38 710.07,538.18 710.07,537.53 C 710.07,537.25 710.29,536.58 710.57,536.03 C 710.97,535.23 711.07,534.55 711.07,532.53 C 711.07,530.50 711.17,529.83 711.57,529.03 C 711.84,528.48 712.07,527.80 712.07,527.53 C 712.07,527.25 711.84,526.58 711.57,526.03 C 711.19,525.28 711.07,524.55 711.07,523.03 C 711.07,521.50 710.94,520.78 710.57,520.03 C 710.29,519.48 710.07,518.80 710.07,518.53 C 710.07,517.88 708.99,515.73 707.97,514.35 C 707.54,513.78 706.94,512.88 706.62,512.35 C 706.29,511.83 705.67,511.15 705.24,510.83 C 702.59,508.95 701.62,508.35 698.52,506.78 C 696.62,505.83 694.84,505.03 694.57,505.03 C 694.27,505.03 693.62,504.80 693.07,504.53 C 692.42,504.18 691.59,504.03 690.57,504.03 C 689.54,504.03 688.72,503.88 688.07,503.53 C 687.27,503.13 686.59,503.03 684.57,503.03 C 682.54,503.03 681.87,502.93 681.07,502.53 C 680.19,502.08 679.59,502.03 675.07,502.03 C 670.54,502.03 669.94,501.98 669.07,501.53 C 668.42,501.18 667.59,501.03 666.57,501.03 C 665.54,501.03 664.72,500.88 664.07,500.53 C 663.52,500.25 662.82,500.03 662.49,500.03 C 661.79,500.03 660.34,498.95 659.59,497.88 C 658.79,496.75 658.82,493.15 659.62,492.13 C 660.94,490.43 662.69,489.03 663.47,489.03 C 663.82,489.03 664.52,488.80 665.07,488.53 C 665.99,488.05 666.54,488.03 675.07,488.03 C 683.59,488.03 684.14,488.05 685.07,488.53 C 685.72,488.88 686.54,489.03 687.57,489.03 C 688.59,489.03 689.42,489.18 690.07,489.53 C 690.62,489.80 691.52,490.03 692.07,490.03 C 692.62,490.03 693.52,490.25 694.07,490.53 C 694.62,490.80 695.29,491.03 695.57,491.03 C 695.84,491.03 696.52,491.25 697.07,491.53 C 697.62,491.80 698.27,492.03 698.54,492.03 C 698.82,492.03 699.54,492.25 700.12,492.50 C 701.74,493.20 703.37,493.55 703.74,493.23 C 704.32,492.75 704.19,474.98 703.64,474.48 C 702.77,473.73 701.07,473.03 700.07,473.03 C 699.52,473.03 698.62,472.80 698.07,472.53 C 697.52,472.25 696.62,472.03 696.07,472.03 C 695.52,472.03 694.62,471.80 694.07,471.53 C 693.42,471.18 692.59,471.03 691.57,471.03 C 690.54,471.03 689.72,470.88 689.07,470.53 C 688.24,470.10 687.59,470.03 685.07,470.03 C 682.54,470.03 681.89,469.95 681.07,469.53 C 679.62,468.78 669.42,468.78 668.07,469.53 M 0.49,470.48 C -0.18,471.23 -0.16,552.00 0.52,552.60 C 0.94,552.98 1.99,553.03 10.49,553.03 C 20.87,553.03 20.84,553.03 20.32,551.68 C 19.94,550.63 19.97,506.98 20.37,506.58 C 21.12,505.83 22.29,506.50 23.14,508.15 C 23.34,508.55 24.22,509.63 25.07,510.53 C 25.92,511.43 26.82,512.55 27.07,513.03 C 27.32,513.50 28.22,514.63 29.07,515.53 C 29.92,516.43 30.82,517.55 31.07,518.03 C 31.32,518.50 31.99,519.40 32.57,520.03 C 33.14,520.65 33.82,521.55 34.07,522.03 C 34.32,522.50 35.22,523.63 36.07,524.53 C 36.92,525.43 37.82,526.55 38.07,527.03 C 38.32,527.50 38.99,528.40 39.57,529.03 C 40.14,529.65 40.82,530.55 41.07,531.03 C 41.32,531.50 42.22,532.63 43.07,533.53 C 43.92,534.43 44.82,535.55 45.07,536.05 C 45.64,537.15 47.24,538.75 47.99,538.93 C 48.94,539.18 49.37,538.93 50.24,537.70 C 50.69,537.05 51.64,535.95 52.34,535.23 C 53.04,534.53 53.82,533.55 54.07,533.05 C 54.32,532.55 54.99,531.65 55.57,531.03 C 56.14,530.40 56.82,529.50 57.07,529.03 C 57.32,528.55 57.99,527.65 58.57,527.03 C 59.14,526.40 59.82,525.50 60.07,525.03 C 60.32,524.55 61.22,523.43 62.07,522.53 C 62.92,521.63 63.82,520.50 64.07,520.03 C 64.32,519.55 64.99,518.65 65.57,518.03 C 66.14,517.40 66.82,516.50 67.07,516.03 C 67.32,515.55 68.22,514.43 69.07,513.53 C 69.92,512.63 70.82,511.50 71.07,511.03 C 71.32,510.55 71.94,509.70 72.44,509.15 C 72.97,508.60 73.64,507.73 73.97,507.20 C 74.59,506.25 75.22,506.03 75.77,506.58 C 75.99,506.80 76.07,512.25 76.07,529.53 C 76.07,551.18 76.09,552.23 76.52,552.60 C 77.09,553.13 95.74,553.25 96.24,552.75 C 96.39,552.60 96.47,552.05 96.39,551.55 C 96.32,550.95 96.42,550.33 96.67,549.83 C 97.37,548.48 97.27,486.40 96.57,485.03 C 96.09,484.13 96.07,483.55 96.07,477.45 C 96.07,471.35 96.04,470.83 95.62,470.43 C 95.19,470.05 94.24,470.03 85.94,470.08 C 76.74,470.15 76.74,470.15 75.89,471.35 C 75.42,472.03 74.69,472.93 74.27,473.35 C 73.87,473.80 73.32,474.55 73.07,475.03 C 72.82,475.50 72.14,476.40 71.57,477.03 C 70.99,477.65 70.32,478.55 70.07,479.03 C 69.82,479.50 68.92,480.63 68.07,481.53 C 67.22,482.43 66.32,483.55 66.07,484.03 C 65.82,484.50 65.14,485.40 64.57,486.03 C 63.99,486.65 63.34,487.48 63.14,487.90 C 62.92,488.30 62.44,489.05 62.07,489.53 C 61.69,490.00 61.22,490.73 60.99,491.15 C 60.79,491.55 60.14,492.40 59.57,493.03 C 58.99,493.65 58.32,494.55 58.07,495.03 C 57.82,495.50 57.14,496.40 56.57,497.03 C 55.99,497.65 55.32,498.55 55.07,499.03 C 54.82,499.50 54.14,500.40 53.57,501.03 C 52.99,501.65 52.32,502.58 52.04,503.08 C 51.37,504.40 48.87,506.78 48.14,506.78 C 47.77,506.78 47.39,506.48 46.97,505.83 C 46.64,505.33 45.97,504.45 45.44,503.90 C 44.94,503.35 44.32,502.50 44.07,502.03 C 43.82,501.55 42.92,500.43 42.07,499.53 C 41.22,498.63 40.32,497.50 40.07,497.03 C 39.82,496.55 39.14,495.65 38.57,495.03 C 37.99,494.40 37.32,493.50 37.07,493.03 C 36.82,492.55 36.14,491.65 35.57,491.03 C 34.99,490.40 34.32,489.50 34.07,489.03 C 33.82,488.55 33.14,487.65 32.57,487.03 C 31.99,486.40 31.32,485.50 31.07,485.03 C 30.82,484.55 30.14,483.65 29.57,483.03 C 28.99,482.40 28.32,481.50 28.07,481.03 C 27.82,480.55 27.14,479.65 26.57,479.03 C 25.99,478.40 25.32,477.50 25.07,477.03 C 24.82,476.55 24.14,475.65 23.57,475.03 C 22.99,474.40 22.32,473.50 22.04,473.03 C 21.47,471.95 21.17,471.58 20.12,470.70 C 19.27,470.03 19.27,470.03 10.09,470.03 C 1.49,470.03 0.87,470.05 0.49,470.48 M 209.49,470.48 C 208.82,471.23 208.84,552.00 209.52,552.60 C 210.32,553.33 255.67,553.23 257.07,552.53 C 257.72,552.18 258.54,552.03 259.57,552.03 C 260.59,552.03 261.42,551.88 262.07,551.53 C 262.62,551.25 263.49,551.03 264.07,551.03 C 264.82,551.03 265.97,550.58 268.54,549.30 C 273.54,546.78 275.82,544.53 278.32,539.53 C 280.07,536.03 280.07,536.03 280.07,530.03 C 280.07,524.50 280.02,523.93 279.57,523.03 C 279.29,522.48 279.07,521.80 279.07,521.53 C 279.07,519.23 274.47,514.23 270.57,512.28 C 267.12,510.55 266.92,510.13 269.09,509.03 C 271.07,508.00 274.47,504.23 275.82,501.53 C 277.02,499.15 277.07,498.95 277.07,497.03 C 277.07,495.50 277.19,494.78 277.57,494.03 C 278.07,493.03 278.07,493.03 277.57,492.03 C 277.19,491.28 277.07,490.55 277.07,489.03 C 277.07,487.50 276.94,486.78 276.57,486.03 C 276.29,485.48 276.07,484.80 276.07,484.53 C 276.07,483.25 274.54,481.00 271.79,478.25 C 268.62,475.10 263.32,472.03 261.07,472.03 C 260.49,472.03 259.62,471.80 259.07,471.53 C 258.27,471.13 257.59,471.03 255.57,471.03 C 253.54,471.03 252.87,470.93 252.07,470.53 C 250.59,469.78 210.17,469.73 209.49,470.48 M 252.52,488.75 C 255.57,490.30 257.07,492.73 257.07,496.10 C 257.07,498.08 257.02,498.28 256.24,499.30 C 255.79,499.90 255.22,500.70 254.99,501.10 C 254.72,501.53 253.72,502.20 252.32,502.90 C 250.07,504.03 250.07,504.03 240.42,504.03 C 227.97,504.03 229.07,504.83 229.07,495.63 C 229.07,489.75 229.12,488.88 229.49,488.48 C 229.87,488.05 230.54,488.03 240.49,488.03 C 251.09,488.03 251.09,488.03 252.52,488.75 M 254.52,519.75 C 256.74,520.90 259.07,523.30 259.07,524.45 C 259.07,524.78 259.29,525.48 259.57,526.03 C 260.27,527.40 260.22,527.73 258.92,530.35 C 257.17,533.85 255.57,535.03 252.57,535.03 C 251.54,535.03 250.72,535.20 250.07,535.53 C 249.52,535.80 248.84,536.03 248.57,536.03 C 248.29,536.03 247.62,535.80 247.07,535.53 C 246.22,535.10 245.59,535.03 242.57,535.03 C 239.54,535.03 238.92,535.10 238.07,535.53 C 237.24,535.95 236.59,536.03 233.92,536.03 C 228.97,536.03 229.07,536.23 229.07,527.13 C 229.07,520.80 229.12,519.88 229.49,519.48 C 229.87,519.05 230.57,519.03 241.49,519.03 C 253.09,519.03 253.09,519.03 254.52,519.75 M 290.49,470.48 C 289.82,471.23 289.87,488.00 290.52,488.60 C 290.94,488.98 292.12,489.03 302.12,489.03 C 312.57,489.03 313.27,489.05 313.64,489.48 C 314.04,489.90 314.07,492.45 314.07,521.08 C 314.07,550.90 314.09,552.23 314.52,552.60 C 315.27,553.28 334.04,553.23 334.64,552.58 C 335.04,552.15 335.07,549.60 335.07,520.98 C 335.07,491.15 335.09,489.83 335.52,489.45 C 335.94,489.08 337.12,489.03 347.12,489.03 C 357.57,489.03 358.27,489.00 358.64,488.58 C 359.32,487.83 359.27,471.05 358.62,470.45 C 357.87,469.78 291.09,469.80 290.49,470.48 M 371.49,470.48 C 370.82,471.23 370.84,552.00 371.52,552.60 C 372.27,553.28 390.04,553.23 390.64,552.58 C 391.02,552.15 391.07,550.93 391.07,539.98 C 391.07,528.55 391.09,527.83 391.52,527.45 C 391.92,527.08 392.69,527.03 397.12,527.03 C 402.89,527.03 403.22,527.13 404.67,529.40 C 405.34,530.48 406.29,531.88 407.69,533.90 C 408.17,534.58 409.02,536.00 409.54,537.03 C 410.09,538.05 410.99,539.40 411.57,540.03 C 412.14,540.65 413.04,542.00 413.59,543.03 C 414.12,544.05 414.97,545.45 415.44,546.15 C 416.84,548.18 417.79,549.58 418.47,550.65 C 420.04,553.13 419.54,553.03 431.94,553.03 C 445.12,553.03 444.59,553.15 442.09,550.53 C 441.79,550.18 441.29,549.50 441.04,549.03 C 440.77,548.55 440.17,547.58 439.69,546.90 C 439.22,546.20 438.49,545.15 438.07,544.53 C 437.64,543.90 436.92,542.83 436.44,542.15 C 435.97,541.45 435.34,540.50 435.07,540.03 C 434.79,539.55 434.17,538.58 433.69,537.90 C 433.22,537.20 432.49,536.15 432.07,535.53 C 431.64,534.90 430.92,533.83 430.44,533.15 C 429.97,532.45 429.37,531.50 429.09,531.03 C 428.82,530.55 428.14,529.65 427.57,529.03 C 426.34,527.68 425.27,525.70 425.37,524.95 C 425.42,524.58 425.94,524.13 427.09,523.53 C 427.99,523.05 429.12,522.35 429.59,522.00 C 430.07,521.65 430.79,521.18 431.24,520.95 C 433.19,519.95 437.49,515.15 438.82,512.53 C 439.52,511.15 440.07,509.80 440.07,509.53 C 440.07,509.23 440.29,508.58 440.57,508.03 C 440.92,507.38 441.07,506.55 441.07,505.53 C 441.07,504.50 441.22,503.68 441.57,503.03 C 441.99,502.18 442.07,501.55 442.07,498.53 C 442.07,495.50 441.99,494.88 441.57,494.03 C 441.19,493.28 441.07,492.55 441.07,491.03 C 441.07,485.93 434.64,477.33 428.54,474.28 C 427.19,473.58 425.84,473.03 425.57,473.03 C 425.27,473.03 424.62,472.80 424.07,472.53 C 423.52,472.25 422.84,472.03 422.57,472.03 C 422.29,472.03 421.62,471.80 421.07,471.53 C 420.24,471.10 419.59,471.03 417.07,471.03 C 414.54,471.03 413.89,470.95 413.07,470.53 C 411.59,469.78 372.17,469.73 371.49,470.48 M 415.52,489.75 C 417.74,490.90 420.07,493.30 420.07,494.45 C 420.07,494.78 420.29,495.48 420.57,496.03 C 420.94,496.78 421.07,497.50 421.07,499.03 C 421.07,500.55 420.94,501.28 420.57,502.03 C 420.29,502.58 420.07,503.28 420.07,503.60 C 420.07,504.85 416.89,508.03 415.67,508.03 C 415.32,508.03 414.62,508.25 414.07,508.53 C 412.69,509.23 392.29,509.30 391.52,508.60 C 390.87,508.00 390.82,490.23 391.49,489.48 C 391.87,489.05 392.57,489.03 402.99,489.03 C 414.09,489.03 414.09,489.03 415.52,489.75 M 484.22,470.55 C 483.47,471.13 482.07,473.73 482.07,474.53 C 482.07,474.80 481.62,475.93 481.07,477.03 C 480.52,478.13 480.07,479.25 480.07,479.53 C 480.07,479.80 479.62,480.93 479.07,482.03 C 478.52,483.13 478.07,484.25 478.07,484.53 C 478.07,484.80 477.39,486.38 476.57,488.03 C 475.74,489.68 475.07,491.25 475.07,491.53 C 475.07,491.80 474.62,492.93 474.07,494.03 C 473.52,495.13 473.07,496.25 473.07,496.53 C 473.07,496.83 472.84,497.48 472.57,498.03 C 472.29,498.58 472.07,499.23 472.07,499.53 C 472.07,499.80 471.62,500.93 471.07,502.03 C 470.52,503.13 470.07,504.25 470.07,504.53 C 470.07,504.80 469.62,505.93 469.07,507.03 C 468.52,508.13 468.07,509.25 468.07,509.53 C 468.07,509.80 467.62,510.93 467.07,512.03 C 466.52,513.13 466.07,514.25 466.07,514.53 C 466.07,514.80 465.62,515.93 465.07,517.03 C 464.52,518.13 464.07,519.25 464.07,519.53 C 464.07,519.80 463.62,520.93 463.07,522.03 C 462.52,523.13 462.07,524.25 462.07,524.53 C 462.07,524.80 461.62,525.93 461.07,527.03 C 460.52,528.13 460.07,529.25 460.07,529.53 C 460.07,529.80 459.62,530.93 459.07,532.03 C 458.52,533.13 458.07,534.25 458.07,534.53 C 458.07,534.83 457.84,535.48 457.57,536.03 C 457.29,536.58 457.07,537.23 457.07,537.53 C 457.07,537.80 456.39,539.38 455.57,541.03 C 454.74,542.68 454.07,544.25 454.07,544.53 C 454.07,544.83 453.84,545.48 453.57,546.03 C 453.29,546.58 453.07,547.23 453.07,547.53 C 453.07,547.80 452.67,548.83 452.19,549.78 C 450.47,553.20 449.99,553.03 461.64,553.03 C 471.37,553.03 471.37,553.03 472.22,552.18 C 472.74,551.65 473.07,551.08 473.07,550.68 C 473.07,550.30 473.52,549.13 474.07,548.03 C 474.62,546.93 475.07,545.80 475.07,545.53 C 475.07,544.95 476.89,541.15 477.52,540.45 C 477.87,540.05 478.97,540.03 494.07,540.03 C 509.17,540.03 510.27,540.05 510.62,540.45 C 511.24,541.15 513.07,544.95 513.07,545.53 C 513.07,545.83 513.29,546.48 513.57,547.03 C 513.84,547.58 514.07,548.25 514.07,548.53 C 514.07,548.80 514.29,549.48 514.57,550.03 C 514.84,550.58 515.07,551.28 515.07,551.60 C 515.07,553.05 515.04,553.03 526.19,552.98 C 537.62,552.90 537.29,552.95 536.59,551.23 C 536.42,550.78 536.19,550.00 536.09,549.53 C 535.99,549.05 535.72,548.30 535.49,547.85 C 535.27,547.40 535.07,546.83 535.07,546.53 C 535.07,546.25 534.62,545.13 534.07,544.03 C 533.52,542.93 533.07,541.80 533.07,541.53 C 533.07,541.25 532.62,540.13 532.07,539.03 C 531.52,537.93 531.07,536.80 531.07,536.53 C 531.07,536.23 530.84,535.58 530.57,535.03 C 530.29,534.48 530.07,533.83 530.07,533.53 C 530.07,533.25 529.62,532.13 529.07,531.03 C 528.52,529.93 528.07,528.80 528.07,528.53 C 528.07,528.25 527.62,527.13 527.07,526.03 C 526.52,524.93 526.07,523.80 526.07,523.53 C 526.07,523.25 525.62,522.13 525.07,521.03 C 524.52,519.93 524.07,518.80 524.07,518.53 C 524.07,518.25 523.62,517.13 523.07,516.03 C 522.52,514.93 522.07,513.80 522.07,513.53 C 522.07,513.25 521.62,512.13 521.07,511.03 C 520.52,509.93 520.07,508.80 520.07,508.53 C 520.07,508.23 519.84,507.58 519.57,507.03 C 519.29,506.48 519.07,505.83 519.07,505.53 C 519.07,505.25 518.39,503.68 517.57,502.03 C 516.74,500.38 516.07,498.80 516.07,498.53 C 516.07,498.25 515.62,497.13 515.07,496.03 C 514.52,494.93 514.07,493.80 514.07,493.53 C 514.07,493.25 513.62,492.13 513.07,491.03 C 512.52,489.93 512.07,488.80 512.07,488.53 C 512.07,488.23 511.84,487.58 511.57,487.03 C 511.29,486.48 511.07,485.83 511.07,485.53 C 511.07,485.25 510.62,484.13 510.07,483.03 C 509.52,481.93 509.07,480.80 509.07,480.53 C 509.07,480.25 508.62,479.13 508.07,478.03 C 507.52,476.93 507.07,475.80 507.07,475.53 C 507.07,474.95 505.24,471.15 504.62,470.45 C 503.97,469.73 485.17,469.80 484.22,470.55 M 494.77,495.58 C 494.94,495.75 495.07,496.13 495.07,496.45 C 495.07,496.78 495.52,497.93 496.07,499.03 C 496.62,500.13 497.07,501.25 497.07,501.53 C 497.07,501.83 497.29,502.48 497.57,503.03 C 497.84,503.58 498.07,504.23 498.07,504.53 C 498.07,504.80 498.52,505.93 499.07,507.03 C 499.62,508.13 500.07,509.25 500.07,509.53 C 500.07,509.83 500.29,510.48 500.57,511.03 C 500.84,511.58 501.07,512.23 501.07,512.53 C 501.07,512.80 501.52,513.93 502.07,515.03 C 502.62,516.13 503.07,517.25 503.07,517.53 C 503.07,517.83 503.29,518.48 503.57,519.03 C 504.19,520.23 504.22,521.95 503.64,522.58 C 503.04,523.23 485.27,523.28 484.52,522.60 C 483.74,521.90 483.92,520.30 485.07,518.03 C 485.62,516.93 486.07,515.80 486.07,515.53 C 486.07,515.25 486.52,514.13 487.07,513.03 C 487.62,511.93 488.07,510.80 488.07,510.53 C 488.07,510.23 488.29,509.58 488.57,509.03 C 488.84,508.48 489.07,507.80 489.07,507.53 C 489.07,507.25 489.29,506.58 489.57,506.03 C 489.84,505.48 490.07,504.80 490.07,504.53 C 490.07,504.25 490.29,503.58 490.57,503.03 C 490.84,502.48 491.07,501.83 491.07,501.53 C 491.07,501.25 491.52,500.13 492.07,499.03 C 492.62,497.93 493.07,496.78 493.07,496.45 C 493.07,495.78 493.49,495.28 494.07,495.28 C 494.29,495.28 494.59,495.40 494.77,495.58 M 547.92,470.88 C 547.07,471.73 547.07,471.73 547.07,511.95 C 547.07,550.63 547.09,552.23 547.52,552.60 C 548.27,553.28 567.04,553.23 567.64,552.58 C 568.04,552.15 568.07,550.20 568.07,529.60 C 568.07,505.05 568.02,505.80 569.39,506.93 C 570.42,507.78 571.59,509.15 572.07,510.03 C 572.32,510.50 573.22,511.63 574.07,512.53 C 574.92,513.43 575.82,514.55 576.07,515.03 C 576.32,515.50 576.99,516.40 577.57,517.03 C 578.14,517.65 578.82,518.55 579.07,519.03 C 579.32,519.50 579.99,520.40 580.57,521.03 C 581.14,521.65 581.82,522.55 582.07,523.03 C 582.32,523.50 582.99,524.40 583.57,525.03 C 584.14,525.65 584.82,526.55 585.07,527.03 C 585.32,527.50 585.99,528.40 586.57,529.03 C 587.14,529.65 587.82,530.55 588.07,531.03 C 588.32,531.50 588.99,532.40 589.57,533.03 C 590.14,533.65 590.82,534.55 591.07,535.03 C 591.32,535.50 591.99,536.40 592.57,537.03 C 593.14,537.65 593.82,538.55 594.07,539.03 C 594.32,539.50 594.99,540.40 595.57,541.03 C 596.14,541.65 596.82,542.55 597.07,543.03 C 597.32,543.50 597.99,544.40 598.57,545.03 C 599.14,545.65 599.82,546.55 600.07,547.03 C 600.32,547.50 600.99,548.40 601.57,549.03 C 602.14,549.65 602.82,550.55 603.09,551.08 C 604.14,553.10 603.67,553.03 614.57,553.03 C 623.62,553.03 624.27,553.00 624.64,552.58 C 625.04,552.15 625.07,548.98 625.07,511.93 C 625.07,471.73 625.07,471.73 624.22,470.88 C 623.37,470.03 623.37,470.03 614.14,470.03 C 605.49,470.03 604.87,470.05 604.49,470.48 C 604.09,470.90 604.07,472.90 604.07,493.95 C 604.07,519.30 604.14,518.15 602.62,517.03 C 602.19,516.73 601.57,515.95 601.24,515.30 C 600.89,514.68 600.14,513.65 599.57,513.03 C 598.99,512.40 598.32,511.50 598.07,511.03 C 597.82,510.55 597.14,509.65 596.57,509.03 C 595.99,508.40 595.32,507.50 595.07,507.03 C 594.82,506.55 594.14,505.65 593.57,505.03 C 592.99,504.40 592.32,503.50 592.07,503.03 C 591.82,502.55 590.92,501.43 590.07,500.53 C 589.22,499.63 588.32,498.50 588.07,498.03 C 587.82,497.55 587.14,496.65 586.57,496.03 C 585.99,495.40 585.32,494.50 585.07,494.03 C 584.82,493.55 584.14,492.65 583.57,492.03 C 582.99,491.40 582.32,490.50 582.07,490.03 C 581.82,489.55 581.14,488.65 580.57,488.03 C 579.99,487.40 579.32,486.50 579.07,486.03 C 578.82,485.55 578.14,484.65 577.57,484.03 C 576.99,483.40 576.32,482.50 576.07,482.03 C 575.82,481.55 575.14,480.65 574.57,480.03 C 573.99,479.40 573.32,478.50 573.07,478.03 C 572.82,477.55 572.14,476.65 571.57,476.03 C 570.99,475.40 570.32,474.50 570.07,474.03 C 569.57,473.08 568.42,471.78 567.12,470.70 C 566.27,470.03 566.27,470.03 557.52,470.03 C 548.77,470.03 548.77,470.03 547.92,470.88 M 724.49,470.48 C 723.82,471.23 723.84,552.00 724.52,552.60 C 725.27,553.28 769.04,553.25 769.64,552.58 C 770.32,551.83 770.27,535.05 769.62,534.45 C 769.19,534.08 767.97,534.03 757.02,534.03 C 745.59,534.03 744.87,534.00 744.49,533.58 C 744.09,533.15 744.07,530.60 744.07,501.98 C 744.07,472.15 744.04,470.83 743.62,470.45 C 742.87,469.78 725.09,469.83 724.49,470.48 M 812.22,470.55 C 811.47,471.13 810.07,473.73 810.07,474.53 C 810.07,474.80 809.62,475.93 809.07,477.03 C 808.52,478.13 808.07,479.25 808.07,479.53 C 808.07,479.80 807.39,481.38 806.57,483.03 C 805.74,484.68 805.07,486.25 805.07,486.53 C 805.07,486.83 804.84,487.48 804.57,488.03 C 804.29,488.58 804.07,489.23 804.07,489.53 C 804.07,489.80 803.39,491.38 802.57,493.03 C 801.74,494.68 801.07,496.25 801.07,496.53 C 801.07,496.80 800.62,497.93 800.07,499.03 C 799.52,500.13 799.07,501.25 799.07,501.53 C 799.07,501.80 798.62,502.93 798.07,504.03 C 797.52,505.13 797.07,506.25 797.07,506.53 C 797.07,506.80 796.62,507.93 796.07,509.03 C 795.52,510.13 795.07,511.25 795.07,511.53 C 795.07,511.80 794.62,512.93 794.07,514.03 C 793.52,515.13 793.07,516.25 793.07,516.53 C 793.07,516.83 792.84,517.48 792.57,518.03 C 792.29,518.58 792.07,519.23 792.07,519.53 C 792.07,519.80 791.62,520.93 791.07,522.03 C 790.52,523.13 790.07,524.25 790.07,524.53 C 790.07,524.80 789.62,525.93 789.07,527.03 C 788.52,528.13 788.07,529.25 788.07,529.53 C 788.07,529.80 787.62,530.93 787.07,532.03 C 786.52,533.13 786.07,534.25 786.07,534.53 C 786.07,534.83 785.84,535.48 785.57,536.03 C 785.29,536.58 785.07,537.23 785.07,537.53 C 785.07,537.80 784.62,538.93 784.07,540.03 C 783.52,541.13 783.07,542.25 783.07,542.53 C 783.07,542.80 782.62,543.93 782.07,545.03 C 781.52,546.13 781.07,547.25 781.07,547.53 C 781.07,547.80 780.67,548.83 780.19,549.78 C 778.47,553.20 777.94,553.03 790.07,553.03 C 801.19,553.03 801.07,553.05 801.07,551.55 C 801.07,551.25 801.29,550.58 801.57,550.03 C 801.84,549.48 802.07,548.80 802.07,548.53 C 802.07,548.25 802.29,547.58 802.57,547.03 C 802.84,546.48 803.07,545.83 803.07,545.53 C 803.07,544.95 804.89,541.15 805.52,540.45 C 805.87,540.05 806.99,540.03 822.14,540.03 C 838.37,540.03 838.37,540.03 839.22,540.88 C 839.74,541.40 840.07,541.98 840.07,542.38 C 840.07,542.75 840.52,543.93 841.07,545.03 C 841.62,546.13 842.07,547.25 842.07,547.53 C 842.07,547.83 842.29,548.48 842.57,549.03 C 842.84,549.58 843.07,550.30 843.07,550.68 C 843.07,551.08 843.39,551.65 843.92,552.18 C 844.77,553.03 844.77,553.03 854.59,552.98 C 865.57,552.90 865.29,552.95 864.59,551.23 C 864.42,550.78 864.19,550.00 864.09,549.53 C 863.99,549.05 863.72,548.30 863.49,547.85 C 863.27,547.40 863.07,546.83 863.07,546.53 C 863.07,546.25 862.84,545.58 862.57,545.03 C 862.29,544.48 862.07,543.83 862.07,543.53 C 862.07,543.25 861.62,542.13 861.07,541.03 C 860.52,539.93 860.07,538.80 860.07,538.53 C 860.07,538.25 859.62,537.13 859.07,536.03 C 858.52,534.93 858.07,533.80 858.07,533.53 C 858.07,533.25 857.62,532.13 857.07,531.03 C 856.52,529.93 856.07,528.80 856.07,528.53 C 856.07,528.25 855.62,527.13 855.07,526.03 C 854.52,524.93 854.07,523.80 854.07,523.53 C 854.07,523.25 853.62,522.13 853.07,521.03 C 852.52,519.93 852.07,518.80 852.07,518.53 C 852.07,518.25 851.62,517.13 851.07,516.03 C 850.52,514.93 850.07,513.80 850.07,513.53 C 850.07,513.23 849.84,512.58 849.57,512.03 C 849.29,511.48 849.07,510.83 849.07,510.53 C 849.07,510.25 848.62,509.13 848.07,508.03 C 847.52,506.93 847.07,505.80 847.07,505.53 C 847.07,505.25 846.62,504.13 846.07,503.03 C 845.52,501.93 845.07,500.80 845.07,500.53 C 845.07,500.25 844.39,498.68 843.57,497.03 C 842.74,495.38 842.07,493.80 842.07,493.53 C 842.07,493.23 841.84,492.58 841.57,492.03 C 841.29,491.48 841.07,490.83 841.07,490.53 C 841.07,490.25 840.62,489.13 840.07,488.03 C 839.52,486.93 839.07,485.80 839.07,485.53 C 839.07,485.25 838.62,484.13 838.07,483.03 C 837.52,481.93 837.07,480.80 837.07,480.53 C 837.07,480.25 836.62,479.13 836.07,478.03 C 835.52,476.93 835.07,475.80 835.07,475.53 C 835.07,474.95 833.24,471.15 832.62,470.45 C 831.97,469.73 813.17,469.80 812.22,470.55 M 823.37,496.65 C 823.74,497.33 824.07,498.15 824.07,498.48 C 824.07,498.78 824.29,499.48 824.57,500.03 C 824.84,500.58 825.07,501.23 825.07,501.53 C 825.07,501.80 825.52,502.93 826.07,504.03 C 826.62,505.13 827.07,506.25 827.07,506.53 C 827.07,506.83 827.29,507.48 827.57,508.03 C 827.84,508.58 828.07,509.23 828.07,509.53 C 828.07,509.80 828.52,510.93 829.07,512.03 C 829.62,513.13 830.07,514.25 830.07,514.53 C 830.07,514.83 830.29,515.48 830.57,516.03 C 830.84,516.58 831.07,517.23 831.07,517.53 C 831.07,517.80 831.47,518.83 831.94,519.78 C 832.87,521.63 832.99,522.25 832.52,522.73 C 831.99,523.25 813.12,523.15 812.52,522.60 C 811.94,522.08 811.94,521.25 812.57,520.03 C 812.84,519.48 813.07,518.80 813.07,518.53 C 813.07,518.25 813.29,517.58 813.57,517.03 C 813.84,516.48 814.07,515.80 814.07,515.53 C 814.07,515.25 814.29,514.58 814.57,514.03 C 814.84,513.48 815.07,512.83 815.07,512.53 C 815.07,512.25 815.52,511.13 816.07,510.03 C 816.62,508.93 817.07,507.80 817.07,507.53 C 817.07,507.23 817.29,506.58 817.57,506.03 C 817.84,505.48 818.07,504.83 818.07,504.53 C 818.07,504.25 818.52,503.13 819.07,502.03 C 819.62,500.93 820.07,499.80 820.07,499.53 C 820.07,499.23 820.29,498.58 820.57,498.03 C 820.84,497.48 821.07,496.78 821.07,496.45 C 821.07,494.83 822.44,494.95 823.37,496.65 M 859.49,470.48 C 858.82,471.23 858.87,488.00 859.52,488.60 C 859.94,488.98 861.12,489.03 871.12,489.03 C 881.57,489.03 882.27,489.05 882.64,489.48 C 883.04,489.90 883.07,492.45 883.07,521.08 C 883.07,550.90 883.09,552.23 883.52,552.60 C 884.27,553.28 902.04,553.23 902.64,552.58 C 903.04,552.15 903.07,549.60 903.07,520.98 C 903.07,491.15 903.09,489.83 903.52,489.45 C 903.94,489.08 905.12,489.03 915.12,489.03 C 925.57,489.03 926.27,489.00 926.64,488.58 C 927.32,487.83 927.27,471.05 926.62,470.45 C 925.87,469.78 860.09,469.80 859.49,470.48 M 938.49,470.48 C 937.82,471.23 937.84,552.00 938.52,552.60 C 939.27,553.28 995.04,553.25 995.64,552.58 C 996.32,551.83 996.27,535.05 995.62,534.45 C 995.19,534.05 993.54,534.03 977.02,534.03 C 959.77,534.03 958.87,534.00 958.49,533.58 C 957.82,532.85 957.87,522.05 958.52,521.45 C 958.94,521.08 960.39,521.03 974.12,521.03 C 988.44,521.03 989.27,521.00 989.64,520.58 C 990.32,519.83 990.27,504.05 989.62,503.45 C 989.19,503.08 987.79,503.03 974.47,503.03 C 956.27,503.03 958.07,503.85 958.07,495.60 C 958.07,490.35 958.12,489.83 958.52,489.45 C 958.94,489.05 960.59,489.03 977.12,489.03 C 994.24,489.03 995.27,489.00 995.64,488.58 C 995.99,488.18 996.07,487.10 996.14,480.40 C 996.19,476.13 996.32,472.30 996.42,471.88 C 996.59,471.20 996.52,471.03 995.94,470.55 C 994.94,469.78 939.19,469.70 938.49,470.48"/>
</svg>
